SplineFontDB: 3.0
FontName: FdSymbolE-Regular
FullName: FdSymbolE-Regular
FamilyName: FdSymbolE
Weight: Regular
Copyright: Copyright (c) 2012, Michael Ummels. This Font Software is licensed under the SIL Open Font License, Version 1.1.
Version: 1.008
ItalicAngle: 0
UnderlinePosition: -100
UnderlineWidth: 50
Ascent: 800
Descent: 200
InvalidEm: 0
LayerCount: 2
Layer: 0 0 "Back" 1
Layer: 1 0 "Fore" 0
UniqueID: 4946566
OS2Version: 0
OS2_WeightWidthSlopeOnly: 0
OS2_UseTypoMetrics: 0
CreationTime: 1431875239
ModificationTime: 1431875240
OS2TypoAscent: 0
OS2TypoAOffset: 1
OS2TypoDescent: 0
OS2TypoDOffset: 1
OS2TypoLinegap: 0
OS2WinAscent: 0
OS2WinAOffset: 1
OS2WinDescent: 0
OS2WinDOffset: 1
HheadAscent: 0
HheadAOffset: 1
HheadDescent: 0
HheadDOffset: 1
OS2Vendor: 'PfEd'
DEI: 91125
Encoding: Custom
UnicodeInterp: none
NameList: AGL For New Fonts
DisplaySize: -48
AntiAlias: 1
FitToEm: 0
BeginPrivate: 2
BlueValues 31 [-10 0 546 556 707 717 754 764]
OtherBlues 11 [-230 -220]
EndPrivate
BeginChars: 256 128

StartChar: sym090
Encoding: 0 -1 0
Width: 1250
Flags: W
HStem: 238 74<90 588 662 1160>
VStem: 588 74<-260 238 312 810>
LayerCount: 2
Back
Fore
SplineSet
588 810 m 1
 662 810 l 1
 662 312 l 1
 1160 312 l 1
 1160 238 l 1
 662 238 l 1
 662 -260 l 1
 588 -260 l 1
 588 238 l 1
 90 238 l 1
 90 312 l 1
 588 312 l 1
 588 810 l 1
EndSplineSet
EndChar

StartChar: sym090.disp
Encoding: 1 -1 1
Width: 1678
Flags: W
HStem: 238 74<90 802 876 1588>
VStem: 802 74<-474 238 312 1024>
LayerCount: 2
Back
Fore
SplineSet
802 1024 m 1
 876 1024 l 1
 876 312 l 1
 1588 312 l 1
 1588 238 l 1
 876 238 l 1
 876 -474 l 1
 802 -474 l 1
 802 238 l 1
 90 238 l 1
 90 312 l 1
 802 312 l 1
 802 1024 l 1
EndSplineSet
EndChar

StartChar: uni2A09
Encoding: 2 10761 2
Width: 1250
Flags: W
LayerCount: 2
Back
Fore
SplineSet
1160 -208 m 1
 1108 -260 l 1
 625 223 l 1
 142 -260 l 1
 90 -208 l 1
 573 275 l 1
 90 758 l 1
 142 810 l 1
 625 327 l 1
 1108 810 l 1
 1160 758 l 1
 677 275 l 1
 1160 -208 l 1
EndSplineSet
EndChar

StartChar: uni2A09.disp
Encoding: 3 -1 3
Width: 1678
Flags: W
LayerCount: 2
Back
Fore
SplineSet
1588 -422 m 1
 1536 -474 l 1
 839 223 l 1
 142 -474 l 1
 90 -422 l 1
 787 275 l 1
 90 972 l 1
 142 1024 l 1
 839 327 l 1
 1536 1024 l 1
 1588 972 l 1
 891 275 l 1
 1588 -422 l 1
EndSplineSet
EndChar

StartChar: uni22C0
Encoding: 4 8896 4
Width: 900
Flags: W
LayerCount: 2
Back
Fore
SplineSet
805 -238 m 1
 734 -260 l 1
 450 649 l 1
 166 -260 l 1
 95 -238 l 1
 423 810 l 1
 477 810 l 1
 805 -238 l 1
EndSplineSet
EndChar

StartChar: uni22C0.disp
Encoding: 5 -1 5
Width: 1188
Flags: W
LayerCount: 2
Back
Fore
SplineSet
1093 -451 m 1
 1022 -474 l 1
 594 865 l 1
 166 -474 l 1
 95 -451 l 1
 567 1024 l 1
 621 1024 l 1
 1093 -451 l 1
EndSplineSet
EndChar

StartChar: uni22C1
Encoding: 6 8897 6
Width: 900
Flags: W
LayerCount: 2
Back
Fore
SplineSet
95 788 m 1
 166 810 l 1
 450 -99 l 1
 734 810 l 1
 805 788 l 1
 477 -260 l 1
 423 -260 l 1
 95 788 l 1
EndSplineSet
EndChar

StartChar: uni22C1.disp
Encoding: 7 -1 7
Width: 1188
Flags: W
LayerCount: 2
Back
Fore
SplineSet
95 1001 m 1
 166 1024 l 1
 594 -315 l 1
 1022 1024 l 1
 1093 1001 l 1
 621 -474 l 1
 567 -474 l 1
 95 1001 l 1
EndSplineSet
EndChar

StartChar: sym091
Encoding: 8 -1 8
Width: 900
Flags: W
HStem: -76 167<411.75 488.25>
VStem: 366 168<-30.3126 45.3314>
LayerCount: 2
Back
Fore
SplineSet
805 -238 m 1
 734 -260 l 1
 450 649 l 1
 166 -260 l 1
 95 -238 l 1
 423 810 l 1
 477 810 l 1
 805 -238 l 1
534 8 m 0
 534 -9 515 -28 500 -43 c 0
 485 -58 467 -76 450 -76 c 0
 433 -76 415 -58 400 -43 c 0
 385 -28 366 -9 366 8 c 0
 366 24 385 43 400 58 c 0
 415 73 433 91 450 91 c 0
 467 91 485 73 500 58 c 0
 515 43 534 24 534 8 c 0
EndSplineSet
EndChar

StartChar: sym091.disp
Encoding: 9 -1 9
Width: 1188
Flags: W
HStem: -183 168<556.513 631.487>
VStem: 510 168<-137.313 -61.6686>
LayerCount: 2
Back
Fore
SplineSet
1093 -451 m 1
 1022 -474 l 1
 594 865 l 1
 166 -474 l 1
 95 -451 l 1
 567 1024 l 1
 621 1024 l 1
 1093 -451 l 1
678 -99 m 0
 678 -116 659 -135 644 -150 c 0
 629 -165 611 -183 594 -183 c 0
 577 -183 559 -165 544 -150 c 0
 529 -135 510 -116 510 -99 c 0
 510 -83 529 -64 544 -49 c 0
 559 -34 577 -15 594 -15 c 0
 611 -15 629 -34 644 -49 c 0
 659 -64 678 -83 678 -99 c 0
EndSplineSet
EndChar

StartChar: sym092
Encoding: 10 -1 10
Width: 900
Flags: W
HStem: 459 167<411.75 488.25>
VStem: 366 168<504.687 580.331>
LayerCount: 2
Back
Fore
SplineSet
95 788 m 1
 166 810 l 1
 450 -99 l 1
 734 810 l 1
 805 788 l 1
 477 -260 l 1
 423 -260 l 1
 95 788 l 1
534 543 m 0
 534 526 515 507 500 492 c 0
 485 477 467 459 450 459 c 0
 433 459 415 477 400 492 c 0
 385 507 366 526 366 543 c 0
 366 559 385 578 400 593 c 0
 415 608 433 626 450 626 c 0
 467 626 485 608 500 593 c 0
 515 578 534 559 534 543 c 0
EndSplineSet
EndChar

StartChar: sym092.disp
Encoding: 11 -1 11
Width: 1188
Flags: W
HStem: 565 168<556.513 631.487>
VStem: 510 168<611.669 687.313>
LayerCount: 2
Back
Fore
SplineSet
95 1001 m 1
 166 1024 l 1
 594 -315 l 1
 1022 1024 l 1
 1093 1001 l 1
 621 -474 l 1
 567 -474 l 1
 95 1001 l 1
678 649 m 0
 678 633 659 614 644 599 c 0
 629 584 611 565 594 565 c 0
 577 565 559 584 544 599 c 0
 529 614 510 633 510 649 c 0
 510 666 529 685 544 700 c 0
 559 715 577 733 594 733 c 0
 611 733 629 715 644 700 c 0
 659 685 678 666 678 649 c 0
EndSplineSet
EndChar

StartChar: uni2A07
Encoding: 12 10759 12
Width: 1140
Flags: W
LayerCount: 2
Back
Fore
SplineSet
1045 -238 m 1
 974 -260 l 1
 690 649 l 1
 609 389 l 1
 805 -238 l 1
 734 -260 l 1
 570 265 l 1
 406 -260 l 1
 335 -238 l 1
 531 389 l 1
 450 649 l 1
 166 -260 l 1
 95 -238 l 1
 423 810 l 1
 477 810 l 1
 570 513 l 1
 663 810 l 1
 717 810 l 1
 1045 -238 l 1
EndSplineSet
EndChar

StartChar: uni2A07.disp
Encoding: 13 -1 13
Width: 1524
Flags: W
LayerCount: 2
Back
Fore
SplineSet
1429 -451 m 1
 1358 -474 l 1
 930 865 l 1
 801 461 l 1
 1093 -451 l 1
 1022 -474 l 1
 762 339 l 1
 502 -474 l 1
 431 -451 l 1
 723 461 l 1
 594 865 l 1
 166 -474 l 1
 95 -451 l 1
 567 1024 l 1
 621 1024 l 1
 762 583 l 1
 903 1024 l 1
 957 1024 l 1
 1429 -451 l 1
EndSplineSet
EndChar

StartChar: uni2A08
Encoding: 14 10760 14
Width: 1140
Flags: W
LayerCount: 2
Back
Fore
SplineSet
335 788 m 1
 406 810 l 1
 570 285 l 1
 734 810 l 1
 805 788 l 1
 609 161 l 1
 690 -99 l 1
 974 810 l 1
 1045 788 l 1
 717 -260 l 1
 663 -260 l 1
 570 37 l 1
 477 -260 l 1
 423 -260 l 1
 95 788 l 1
 166 810 l 1
 450 -99 l 1
 531 161 l 1
 335 788 l 1
EndSplineSet
EndChar

StartChar: uni2A08.disp
Encoding: 15 -1 15
Width: 1524
Flags: W
LayerCount: 2
Back
Fore
SplineSet
431 1001 m 1
 502 1024 l 1
 762 211 l 1
 1022 1024 l 1
 1093 1001 l 1
 801 89 l 1
 930 -315 l 1
 1358 1024 l 1
 1429 1001 l 1
 957 -474 l 1
 903 -474 l 1
 762 -33 l 1
 621 -474 l 1
 567 -474 l 1
 95 1001 l 1
 166 1024 l 1
 594 -315 l 1
 723 89 l 1
 431 1001 l 1
EndSplineSet
EndChar

StartChar: sym093
Encoding: 16 -1 16
Width: 900
Flags: W
VStem: 413 74<536.525 810>
LayerCount: 2
Back
Fore
SplineSet
450 327 m 1
 407 104 319 -103 152 -260 c 1
 102 -206 l 1
 363 38 413 414 413 773 c 2
 413 810 l 1
 487 810 l 1
 487 773 l 2
 487 414 537 38 798 -206 c 1
 748 -260 l 1
 581 -103 493 104 450 327 c 1
EndSplineSet
EndChar

StartChar: sym093.disp
Encoding: 17 -1 17
Width: 1188
Flags: W
VStem: 557 74<768.169 1024>
LayerCount: 2
Back
Fore
SplineSet
594 453 m 1
 539 101 413 -230 152 -474 c 1
 102 -420 l 1
 478 -69 557 470 557 987 c 2
 557 1024 l 1
 631 1024 l 1
 631 987 l 2
 631 470 710 -69 1086 -420 c 1
 1036 -474 l 1
 775 -230 649 101 594 453 c 1
EndSplineSet
EndChar

StartChar: sym094
Encoding: 18 -1 18
Width: 900
Flags: W
VStem: 413 74<-260 13.4745>
LayerCount: 2
Back
Fore
SplineSet
450 223 m 1
 493 446 581 653 748 810 c 1
 798 756 l 1
 537 512 487 136 487 -223 c 2
 487 -260 l 1
 413 -260 l 1
 413 -223 l 2
 413 136 363 512 102 756 c 1
 152 810 l 1
 319 653 407 446 450 223 c 1
EndSplineSet
EndChar

StartChar: sym094.disp
Encoding: 19 -1 19
Width: 1188
Flags: W
VStem: 557 74<-474 -218.169>
LayerCount: 2
Back
Fore
SplineSet
594 97 m 1
 649 449 775 780 1036 1024 c 1
 1086 970 l 1
 710 619 631 80 631 -437 c 2
 631 -474 l 1
 557 -474 l 1
 557 -437 l 2
 557 80 478 619 102 970 c 1
 152 1024 l 1
 413 780 539 449 594 97 c 1
EndSplineSet
EndChar

StartChar: uni22C2
Encoding: 20 8898 20
Width: 900
Flags: W
HStem: 736 74<336.642 563.358>
VStem: 90 74<-260 584.996> 736 74<-260 584.996>
LayerCount: 2
Back
Fore
SplineSet
736 -260 m 1
 736 496 l 2
 736 638 600 736 450 736 c 0
 300 736 164 638 164 496 c 2
 164 -260 l 1
 90 -260 l 1
 90 496 l 2
 90 678 259 810 450 810 c 0
 641 810 810 678 810 496 c 2
 810 -260 l 1
 736 -260 l 1
EndSplineSet
EndChar

StartChar: uni22C2.disp
Encoding: 21 -1 21
Width: 1188
Flags: W
HStem: 950 74<449.16 738.84>
VStem: 90 74<-474 696.17> 1024 74<-474 696.17>
LayerCount: 2
Back
Fore
SplineSet
1024 -474 m 1
 1024 582 l 2
 1024 798 821 950 594 950 c 0
 367 950 164 798 164 582 c 2
 164 -474 l 1
 90 -474 l 1
 90 582 l 2
 90 838 326 1024 594 1024 c 0
 862 1024 1098 838 1098 582 c 2
 1098 -474 l 1
 1024 -474 l 1
EndSplineSet
EndChar

StartChar: uni22C3
Encoding: 22 8899 22
Width: 900
Flags: W
HStem: -260 74<336.642 563.358>
VStem: 90 74<-34.9963 810> 736 74<-34.9963 810>
LayerCount: 2
Back
Fore
SplineSet
164 810 m 1
 164 54 l 2
 164 -88 300 -186 450 -186 c 0
 600 -186 736 -88 736 54 c 2
 736 810 l 1
 810 810 l 1
 810 54 l 2
 810 -128 641 -260 450 -260 c 0
 259 -260 90 -128 90 54 c 2
 90 810 l 1
 164 810 l 1
EndSplineSet
EndChar

StartChar: uni22C3.disp
Encoding: 23 -1 23
Width: 1188
Flags: W
HStem: -474 74<449.16 738.84>
VStem: 90 74<-146.17 1024> 1024 74<-146.17 1024>
LayerCount: 2
Back
Fore
SplineSet
164 1024 m 1
 164 -32 l 2
 164 -248 367 -400 594 -400 c 0
 821 -400 1024 -248 1024 -32 c 2
 1024 1024 l 1
 1098 1024 l 1
 1098 -32 l 2
 1098 -288 862 -474 594 -474 c 0
 326 -474 90 -288 90 -32 c 2
 90 1024 l 1
 164 1024 l 1
EndSplineSet
EndChar

StartChar: sym095
Encoding: 24 -1 24
Width: 900
Flags: W
HStem: 57 168<412.513 487.487> 736 74<336.642 563.358>
VStem: 90 74<-260 584.996> 366 168<103.513 179.313> 736 74<-260 584.996>
CounterMasks: 1 38
LayerCount: 2
Back
Fore
SplineSet
736 -260 m 1
 736 496 l 2
 736 638 600 736 450 736 c 0
 300 736 164 638 164 496 c 2
 164 -260 l 1
 90 -260 l 1
 90 496 l 2
 90 678 259 810 450 810 c 0
 641 810 810 678 810 496 c 2
 810 -260 l 1
 736 -260 l 1
534 141 m 0
 534 124 515 106 500 91 c 0
 485 76 467 57 450 57 c 0
 433 57 415 76 400 91 c 0
 385 106 366 124 366 141 c 0
 366 158 385 177 400 192 c 0
 415 207 433 225 450 225 c 0
 467 225 485 207 500 192 c 0
 515 177 534 158 534 141 c 0
EndSplineSet
EndChar

StartChar: sym095.disp
Encoding: 25 -1 25
Width: 1188
Flags: W
HStem: 4 168<556.513 631.487> 950 74<449.16 738.84>
VStem: 90 74<-474 696.17> 510 168<49.6874 125.487> 1024 74<-474 696.17>
CounterMasks: 1 38
LayerCount: 2
Back
Fore
SplineSet
1024 -474 m 1
 1024 582 l 2
 1024 798 821 950 594 950 c 0
 367 950 164 798 164 582 c 2
 164 -474 l 1
 90 -474 l 1
 90 582 l 2
 90 838 326 1024 594 1024 c 0
 862 1024 1098 838 1098 582 c 2
 1098 -474 l 1
 1024 -474 l 1
678 88 m 0
 678 71 659 52 644 37 c 0
 629 22 611 4 594 4 c 0
 577 4 559 22 544 37 c 0
 529 52 510 71 510 88 c 0
 510 105 529 123 544 138 c 0
 559 153 577 172 594 172 c 0
 611 172 629 153 644 138 c 0
 659 123 678 105 678 88 c 0
EndSplineSet
EndChar

StartChar: uni2A03
Encoding: 26 10755 26
Width: 900
Flags: W
HStem: -260 74<336.642 563.358> 325 168<412.513 487.487>
VStem: 90 74<-34.9963 810> 366 168<370.687 446.487> 736 74<-34.9963 810>
CounterMasks: 1 38
LayerCount: 2
Back
Fore
SplineSet
164 810 m 1
 164 54 l 2
 164 -88 300 -186 450 -186 c 0
 600 -186 736 -88 736 54 c 2
 736 810 l 1
 810 810 l 1
 810 54 l 2
 810 -128 641 -260 450 -260 c 0
 259 -260 90 -128 90 54 c 2
 90 810 l 1
 164 810 l 1
534 409 m 0
 534 392 515 373 500 358 c 0
 485 343 467 325 450 325 c 0
 433 325 415 343 400 358 c 0
 385 373 366 392 366 409 c 0
 366 426 385 444 400 459 c 0
 415 474 433 493 450 493 c 0
 467 493 485 474 500 459 c 0
 515 444 534 426 534 409 c 0
EndSplineSet
EndChar

StartChar: uni2A03.disp
Encoding: 27 -1 27
Width: 1188
Flags: W
HStem: -474 74<449.16 738.84> 378 168<556.513 631.487>
VStem: 90 74<-146.17 1024> 510 168<424.513 500.313> 1024 74<-146.17 1024>
CounterMasks: 1 38
LayerCount: 2
Back
Fore
SplineSet
164 1024 m 1
 164 -32 l 2
 164 -248 367 -400 594 -400 c 0
 821 -400 1024 -248 1024 -32 c 2
 1024 1024 l 1
 1098 1024 l 1
 1098 -32 l 2
 1098 -288 862 -474 594 -474 c 0
 326 -474 90 -288 90 -32 c 2
 90 1024 l 1
 164 1024 l 1
678 462 m 0
 678 445 659 427 644 412 c 0
 629 397 611 378 594 378 c 0
 577 378 559 397 544 412 c 0
 529 427 510 445 510 462 c 0
 510 479 529 498 544 513 c 0
 559 528 577 546 594 546 c 0
 611 546 629 528 644 513 c 0
 659 498 678 479 678 462 c 0
EndSplineSet
EndChar

StartChar: sym096
Encoding: 28 -1 28
Width: 900
Flags: W
HStem: 148 74<270 413 487 630> 736 74<336.642 563.358>
VStem: 90 74<-260 584.996> 413 74<5 148 222 365> 736 74<-260 584.996>
CounterMasks: 1 38
LayerCount: 2
Back
Fore
SplineSet
736 -260 m 1
 736 496 l 2
 736 638 600 736 450 736 c 0
 300 736 164 638 164 496 c 2
 164 -260 l 1
 90 -260 l 1
 90 496 l 2
 90 678 259 810 450 810 c 0
 641 810 810 678 810 496 c 2
 810 -260 l 1
 736 -260 l 1
413 365 m 1
 487 365 l 1
 487 222 l 1
 630 222 l 1
 630 148 l 1
 487 148 l 1
 487 5 l 1
 413 5 l 1
 413 148 l 1
 270 148 l 1
 270 222 l 1
 413 222 l 1
 413 365 l 1
EndSplineSet
EndChar

StartChar: sym096.disp
Encoding: 29 -1 29
Width: 1188
Flags: W
HStem: 112 74<342 557 631 846> 950 74<449.16 738.84>
VStem: 90 74<-474 696.17> 557 74<-103 112 186 401> 1024 74<-474 696.17>
CounterMasks: 1 38
LayerCount: 2
Back
Fore
SplineSet
1024 -474 m 1
 1024 582 l 2
 1024 798 821 950 594 950 c 0
 367 950 164 798 164 582 c 2
 164 -474 l 1
 90 -474 l 1
 90 582 l 2
 90 838 326 1024 594 1024 c 0
 862 1024 1098 838 1098 582 c 2
 1098 -474 l 1
 1024 -474 l 1
557 401 m 1
 631 401 l 1
 631 186 l 1
 846 186 l 1
 846 112 l 1
 631 112 l 1
 631 -103 l 1
 557 -103 l 1
 557 112 l 1
 342 112 l 1
 342 186 l 1
 557 186 l 1
 557 401 l 1
EndSplineSet
EndChar

StartChar: uni2A04
Encoding: 30 10756 30
Width: 900
Flags: W
HStem: -260 74<336.642 563.358> 328 74<270 413 487 630> 525 20G<413 487>
VStem: 90 74<-34.9963 810> 413 74<185 328 402 545> 736 74<-34.9963 810>
CounterMasks: 1 1c
LayerCount: 2
Back
Fore
SplineSet
164 810 m 1
 164 54 l 2
 164 -88 300 -186 450 -186 c 0
 600 -186 736 -88 736 54 c 2
 736 810 l 1
 810 810 l 1
 810 54 l 2
 810 -128 641 -260 450 -260 c 0
 259 -260 90 -128 90 54 c 2
 90 810 l 1
 164 810 l 1
413 545 m 1
 487 545 l 1
 487 402 l 1
 630 402 l 1
 630 328 l 1
 487 328 l 1
 487 185 l 1
 413 185 l 1
 413 328 l 1
 270 328 l 1
 270 402 l 1
 413 402 l 1
 413 545 l 1
EndSplineSet
EndChar

StartChar: uni2A04.disp
Encoding: 31 -1 31
Width: 1188
Flags: W
HStem: -474 74<449.16 738.84> 364 74<342 557 631 846>
VStem: 90 74<-146.17 1024> 557 74<149 364 438 653> 1024 74<-146.17 1024>
CounterMasks: 1 38
LayerCount: 2
Back
Fore
SplineSet
164 1024 m 1
 164 -32 l 2
 164 -248 367 -400 594 -400 c 0
 821 -400 1024 -248 1024 -32 c 2
 1024 1024 l 1
 1098 1024 l 1
 1098 -32 l 2
 1098 -288 862 -474 594 -474 c 0
 326 -474 90 -288 90 -32 c 2
 90 1024 l 1
 164 1024 l 1
557 653 m 1
 631 653 l 1
 631 438 l 1
 846 438 l 1
 846 364 l 1
 631 364 l 1
 631 149 l 1
 557 149 l 1
 557 364 l 1
 342 364 l 1
 342 438 l 1
 557 438 l 1
 557 653 l 1
EndSplineSet
EndChar

StartChar: uni2A05
Encoding: 32 10757 32
Width: 900
Flags: W
HStem: 736 74<164 736>
VStem: 90 74<-260 736> 736 74<-260 736>
LayerCount: 2
Back
Fore
SplineSet
164 -260 m 1
 90 -260 l 1
 90 97 90 453 90 810 c 1
 810 810 l 1
 810 453 810 97 810 -260 c 1
 736 -260 l 1
 736 736 l 1
 164 736 l 1
 164 -260 l 1
EndSplineSet
EndChar

StartChar: uni2A05.disp
Encoding: 33 -1 33
Width: 1188
Flags: W
HStem: 950 74<164 1024>
VStem: 90 74<-474 950> 1024 74<-474 950>
LayerCount: 2
Back
Fore
SplineSet
164 -474 m 1
 90 -474 l 1
 90 25 90 525 90 1024 c 1
 1098 1024 l 1
 1098 525 1098 25 1098 -474 c 1
 1024 -474 l 1
 1024 950 l 1
 164 950 l 1
 164 -474 l 1
EndSplineSet
EndChar

StartChar: uni2A06
Encoding: 34 10758 34
Width: 900
Flags: W
HStem: -260 74<164 736>
VStem: 90 74<-186 810> 736 74<-186 810>
LayerCount: 2
Back
Fore
SplineSet
90 810 m 1
 164 810 l 1
 164 -186 l 1
 736 -186 l 1
 736 810 l 1
 810 810 l 1
 810 453 810 97 810 -260 c 1
 90 -260 l 1
 90 97 90 453 90 810 c 1
EndSplineSet
EndChar

StartChar: uni2A06.disp
Encoding: 35 -1 35
Width: 1188
Flags: W
HStem: -474 74<164 1024>
VStem: 90 74<-400 1024> 1024 74<-400 1024>
LayerCount: 2
Back
Fore
SplineSet
90 1024 m 1
 164 1024 l 1
 164 -400 l 1
 1024 -400 l 1
 1024 1024 l 1
 1098 1024 l 1
 1098 525 1098 25 1098 -474 c 1
 90 -474 l 1
 90 25 90 525 90 1024 c 1
EndSplineSet
EndChar

StartChar: sym097
Encoding: 36 -1 36
Width: 900
Flags: W
HStem: 57 168<412.513 487.487> 736 74<164 736>
VStem: 90 74<-260 736> 366 168<103.513 179.313> 736 74<-260 736>
CounterMasks: 1 38
LayerCount: 2
Back
Fore
SplineSet
164 -260 m 1
 90 -260 l 1
 90 97 90 453 90 810 c 1
 810 810 l 1
 810 453 810 97 810 -260 c 1
 736 -260 l 1
 736 736 l 1
 164 736 l 1
 164 -260 l 1
534 141 m 0
 534 124 515 106 500 91 c 0
 485 76 467 57 450 57 c 0
 433 57 415 76 400 91 c 0
 385 106 366 124 366 141 c 0
 366 158 385 177 400 192 c 0
 415 207 433 225 450 225 c 0
 467 225 485 207 500 192 c 0
 515 177 534 158 534 141 c 0
EndSplineSet
EndChar

StartChar: sym097.disp
Encoding: 37 -1 37
Width: 1188
Flags: W
HStem: 4 168<556.513 631.487> 950 74<164 1024>
VStem: 90 74<-474 950> 510 168<49.6874 125.487> 1024 74<-474 950>
CounterMasks: 1 38
LayerCount: 2
Back
Fore
SplineSet
164 -474 m 1
 90 -474 l 1
 90 25 90 525 90 1024 c 1
 1098 1024 l 1
 1098 525 1098 25 1098 -474 c 1
 1024 -474 l 1
 1024 950 l 1
 164 950 l 1
 164 -474 l 1
678 88 m 0
 678 71 659 52 644 37 c 0
 629 22 611 4 594 4 c 0
 577 4 559 22 544 37 c 0
 529 52 510 71 510 88 c 0
 510 105 529 123 544 138 c 0
 559 153 577 172 594 172 c 0
 611 172 629 153 644 138 c 0
 659 123 678 105 678 88 c 0
EndSplineSet
EndChar

StartChar: sym098
Encoding: 38 -1 38
Width: 900
Flags: W
HStem: -260 74<164 736> 325 168<412.513 487.487>
VStem: 90 74<-186 810> 366 168<370.687 446.487> 736 74<-186 810>
CounterMasks: 1 38
LayerCount: 2
Back
Fore
SplineSet
90 810 m 1
 164 810 l 1
 164 -186 l 1
 736 -186 l 1
 736 810 l 1
 810 810 l 1
 810 453 810 97 810 -260 c 1
 90 -260 l 1
 90 97 90 453 90 810 c 1
534 409 m 0
 534 392 515 373 500 358 c 0
 485 343 467 325 450 325 c 0
 433 325 415 343 400 358 c 0
 385 373 366 392 366 409 c 0
 366 426 385 444 400 459 c 0
 415 474 433 493 450 493 c 0
 467 493 485 474 500 459 c 0
 515 444 534 426 534 409 c 0
EndSplineSet
EndChar

StartChar: sym098.disp
Encoding: 39 -1 39
Width: 1188
Flags: W
HStem: -474 74<164 1024> 378 168<556.513 631.487>
VStem: 90 74<-400 1024> 510 168<424.513 500.313> 1024 74<-400 1024>
CounterMasks: 1 38
LayerCount: 2
Back
Fore
SplineSet
90 1024 m 1
 164 1024 l 1
 164 -400 l 1
 1024 -400 l 1
 1024 1024 l 1
 1098 1024 l 1
 1098 525 1098 25 1098 -474 c 1
 90 -474 l 1
 90 25 90 525 90 1024 c 1
678 462 m 0
 678 445 659 427 644 412 c 0
 629 397 611 378 594 378 c 0
 577 378 559 397 544 412 c 0
 529 427 510 445 510 462 c 0
 510 479 529 498 544 513 c 0
 559 528 577 546 594 546 c 0
 611 546 629 528 644 513 c 0
 659 498 678 479 678 462 c 0
EndSplineSet
EndChar

StartChar: sym099
Encoding: 40 -1 40
Width: 900
Flags: W
HStem: 148 74<270 413 487 630> 736 74<164 736>
VStem: 90 74<-260 736> 413 74<5 148 222 365> 736 74<-260 736>
CounterMasks: 1 38
LayerCount: 2
Back
Fore
SplineSet
164 -260 m 1
 90 -260 l 1
 90 97 90 453 90 810 c 1
 810 810 l 1
 810 453 810 97 810 -260 c 1
 736 -260 l 1
 736 736 l 1
 164 736 l 1
 164 -260 l 1
413 365 m 1
 487 365 l 1
 487 222 l 1
 630 222 l 1
 630 148 l 1
 487 148 l 1
 487 5 l 1
 413 5 l 1
 413 148 l 1
 270 148 l 1
 270 222 l 1
 413 222 l 1
 413 365 l 1
EndSplineSet
EndChar

StartChar: sym099.disp
Encoding: 41 -1 41
Width: 1188
Flags: W
HStem: 112 74<342 557 631 846> 950 74<164 1024>
VStem: 90 74<-474 950> 557 74<-103 112 186 401> 1024 74<-474 950>
CounterMasks: 1 38
LayerCount: 2
Back
Fore
SplineSet
164 -474 m 1
 90 -474 l 1
 90 25 90 525 90 1024 c 1
 1098 1024 l 1
 1098 525 1098 25 1098 -474 c 1
 1024 -474 l 1
 1024 950 l 1
 164 950 l 1
 164 -474 l 1
557 401 m 1
 631 401 l 1
 631 186 l 1
 846 186 l 1
 846 112 l 1
 631 112 l 1
 631 -103 l 1
 557 -103 l 1
 557 112 l 1
 342 112 l 1
 342 186 l 1
 557 186 l 1
 557 401 l 1
EndSplineSet
EndChar

StartChar: sym09A
Encoding: 42 -1 42
Width: 900
Flags: W
HStem: -260 74<164 736> 328 74<270 413 487 630> 525 20G<413 487>
VStem: 90 74<-186 810> 413 74<185 328 402 545> 736 74<-186 810>
CounterMasks: 1 1c
LayerCount: 2
Back
Fore
SplineSet
90 810 m 1
 164 810 l 1
 164 -186 l 1
 736 -186 l 1
 736 810 l 1
 810 810 l 1
 810 453 810 97 810 -260 c 1
 90 -260 l 1
 90 97 90 453 90 810 c 1
413 545 m 1
 487 545 l 1
 487 402 l 1
 630 402 l 1
 630 328 l 1
 487 328 l 1
 487 185 l 1
 413 185 l 1
 413 328 l 1
 270 328 l 1
 270 402 l 1
 413 402 l 1
 413 545 l 1
EndSplineSet
EndChar

StartChar: sym09A.disp
Encoding: 43 -1 43
Width: 1188
Flags: W
HStem: -474 74<164 1024> 364 74<342 557 631 846>
VStem: 90 74<-400 1024> 557 74<149 364 438 653> 1024 74<-400 1024>
CounterMasks: 1 38
LayerCount: 2
Back
Fore
SplineSet
90 1024 m 1
 164 1024 l 1
 164 -400 l 1
 1024 -400 l 1
 1024 1024 l 1
 1098 1024 l 1
 1098 525 1098 25 1098 -474 c 1
 90 -474 l 1
 90 25 90 525 90 1024 c 1
557 653 m 1
 631 653 l 1
 631 438 l 1
 846 438 l 1
 846 364 l 1
 631 364 l 1
 631 149 l 1
 557 149 l 1
 557 364 l 1
 342 364 l 1
 342 438 l 1
 557 438 l 1
 557 653 l 1
EndSplineSet
EndChar

StartChar: uni2A01
Encoding: 44 10753 44
Width: 1250
Flags: W
HStem: -260 76<483.348 588 662 766.652> 238 74<166 588 662 1084> 734 76<483.348 588 662 766.652>
VStem: 90 76<133.348 238 312 416.652> 588 74<-184 238 312 734> 1084 76<133.348 238 312 416.652>
CounterMasks: 1 fc
LayerCount: 2
Back
Fore
SplineSet
662 312 m 1
 1084 312 l 1
 1075 421 1028 524 951 601 c 0
 874 678 771 725 662 734 c 1
 662 312 l 1
588 312 m 1
 588 734 l 1
 479 725 376 678 299 601 c 0
 222 524 175 421 166 312 c 1
 588 312 l 1
662 238 m 1
 662 -184 l 1
 771 -175 874 -128 951 -51 c 0
 1028 26 1075 129 1084 238 c 1
 662 238 l 1
588 238 m 1
 166 238 l 1
 175 129 222 26 299 -51 c 0
 376 -128 479 -175 588 -184 c 1
 588 238 l 1
1160 275 m 0
 1160 133 1104 -3 1003 -103 c 0
 903 -204 767 -260 625 -260 c 0
 483 -260 347 -204 247 -103 c 0
 146 -3 90 133 90 275 c 0
 90 417 146 553 247 653 c 0
 347 754 483 810 625 810 c 0
 767 810 903 754 1003 653 c 0
 1104 553 1160 417 1160 275 c 0
EndSplineSet
EndChar

StartChar: uni2A01.disp
Encoding: 45 -1 45
Width: 1678
Flags: W
HStem: -474 75<665.192 802 876 1012.81> 238 74<165 802 876 1513> 949 75<665.192 802 876 1012.81>
VStem: 90 75<101.192 238 312 448.808> 802 74<-399 238 312 949> 1513 75<101.192 238 312 448.808>
CounterMasks: 1 fc
LayerCount: 2
Back
Fore
SplineSet
876 312 m 1
 1513 312 l 1
 1504 478 1434 635 1316 752 c 0
 1199 870 1042 940 876 949 c 1
 876 312 l 1
802 312 m 1
 802 949 l 1
 636 940 479 870 362 752 c 0
 244 635 174 478 165 312 c 1
 802 312 l 1
876 238 m 1
 876 -399 l 1
 1042 -390 1199 -320 1316 -202 c 0
 1434 -85 1504 72 1513 238 c 1
 876 238 l 1
802 238 m 1
 165 238 l 1
 174 72 244 -85 362 -202 c 0
 479 -320 636 -390 802 -399 c 1
 802 238 l 1
1588 275 m 0
 1588 76 1509 -114 1369 -255 c 0
 1228 -395 1038 -474 839 -474 c 0
 640 -474 450 -395 309 -255 c 0
 169 -114 90 76 90 275 c 0
 90 474 169 664 309 805 c 0
 450 945 640 1024 839 1024 c 0
 1038 1024 1228 945 1369 805 c 0
 1509 664 1588 474 1588 275 c 0
EndSplineSet
EndChar

StartChar: uni2A02
Encoding: 46 10754 46
Width: 1250
Flags: W
HStem: -260 74<488.78 761.22> 736 74<488.78 761.22>
VStem: 90 74<138.78 411.22> 1086 74<138.78 411.22>
LayerCount: 2
Back
Fore
SplineSet
625 327 m 1
 924 626 l 1
 841 696 735 736 625 736 c 0
 515 736 409 696 326 626 c 1
 625 327 l 1
573 275 m 1
 274 574 l 1
 204 491 164 385 164 275 c 0
 164 165 204 59 274 -24 c 1
 573 275 l 1
677 275 m 1
 976 -24 l 1
 1046 59 1086 165 1086 275 c 0
 1086 385 1046 491 976 574 c 1
 677 275 l 1
625 223 m 1
 326 -76 l 1
 409 -146 515 -186 625 -186 c 0
 735 -186 841 -146 924 -76 c 1
 625 223 l 1
1160 275 m 0
 1160 133 1104 -3 1003 -103 c 0
 903 -204 767 -260 625 -260 c 0
 483 -260 347 -204 247 -103 c 0
 146 -3 90 133 90 275 c 0
 90 417 146 553 247 653 c 0
 347 754 483 810 625 810 c 0
 767 810 903 754 1003 653 c 0
 1104 553 1160 417 1160 275 c 0
EndSplineSet
EndChar

StartChar: uni2A02.disp
Encoding: 47 -1 47
Width: 1678
Flags: W
HStem: -474 74<672.522 1005.48> 950 74<672.522 1005.48>
VStem: 90 74<108.522 441.478> 1514 74<108.522 441.478>
LayerCount: 2
Back
Fore
SplineSet
839 328 m 1
 1289 778 l 1
 1166 889 1005 950 839 950 c 0
 673 950 512 889 389 778 c 1
 839 328 l 1
786 275 m 1
 336 725 l 1
 225 602 164 441 164 275 c 0
 164 109 225 -52 336 -175 c 1
 786 275 l 1
892 275 m 1
 1342 -175 l 1
 1453 -52 1514 109 1514 275 c 0
 1514 441 1453 602 1342 725 c 1
 892 275 l 1
839 222 m 1
 389 -228 l 1
 512 -339 673 -400 839 -400 c 0
 1005 -400 1166 -339 1289 -228 c 1
 839 222 l 1
1588 275 m 0
 1588 76 1509 -114 1369 -255 c 0
 1228 -395 1038 -474 839 -474 c 0
 640 -474 450 -395 309 -255 c 0
 169 -114 90 76 90 275 c 0
 90 474 169 664 309 805 c 0
 450 945 640 1024 839 1024 c 0
 1038 1024 1228 945 1369 805 c 0
 1509 664 1588 474 1588 275 c 0
EndSplineSet
EndChar

StartChar: uni2A00
Encoding: 48 10752 48
Width: 1250
Flags: W
HStem: -260 74<486.874 763.126> 191 168<587.513 662.487> 736 74<486.874 763.126>
VStem: 90 74<136.874 413.126> 541 168<237.513 312.487> 1086 74<136.874 413.126>
CounterMasks: 1 fc
LayerCount: 2
Back
Fore
SplineSet
1160 275 m 0
 1160 133 1104 -3 1003 -103 c 0
 903 -204 767 -260 625 -260 c 0
 483 -260 347 -204 247 -103 c 0
 146 -3 90 133 90 275 c 0
 90 417 146 553 247 653 c 0
 347 754 483 810 625 810 c 0
 767 810 903 754 1003 653 c 0
 1104 553 1160 417 1160 275 c 0
1086 275 m 0
 1086 397 1037 515 951 601 c 0
 865 687 747 736 625 736 c 0
 503 736 385 687 299 601 c 0
 213 515 164 397 164 275 c 0
 164 153 213 35 299 -51 c 0
 385 -137 503 -186 625 -186 c 0
 747 -186 865 -137 951 -51 c 0
 1037 35 1086 153 1086 275 c 0
709 275 m 0
 709 258 690 240 675 225 c 0
 660 210 642 191 625 191 c 0
 608 191 590 210 575 225 c 0
 560 240 541 258 541 275 c 0
 541 292 560 310 575 325 c 0
 590 340 608 359 625 359 c 0
 642 359 660 340 675 325 c 0
 690 310 709 292 709 275 c 0
EndSplineSet
EndChar

StartChar: uni2A00.disp
Encoding: 49 -1 49
Width: 1678
Flags: W
HStem: -474 74<674.274 1003.73> 191 168<801.513 876.487> 950 74<674.274 1003.73>
VStem: 90 74<110.274 439.726> 755 168<237.513 312.487> 1514 74<110.274 439.726>
CounterMasks: 1 fc
LayerCount: 2
Back
Fore
SplineSet
1588 275 m 0
 1588 76 1509 -114 1369 -255 c 0
 1228 -395 1038 -474 839 -474 c 0
 640 -474 450 -395 309 -255 c 0
 169 -114 90 76 90 275 c 0
 90 474 169 664 309 805 c 0
 450 945 640 1024 839 1024 c 0
 1038 1024 1228 945 1369 805 c 0
 1509 664 1588 474 1588 275 c 0
1514 275 m 0
 1514 454 1443 626 1316 752 c 0
 1190 879 1018 950 839 950 c 0
 660 950 488 879 362 752 c 0
 235 626 164 454 164 275 c 0
 164 96 235 -76 362 -202 c 0
 488 -329 660 -400 839 -400 c 0
 1018 -400 1190 -329 1316 -202 c 0
 1443 -76 1514 96 1514 275 c 0
923 275 m 0
 923 258 904 240 889 225 c 0
 874 210 856 191 839 191 c 0
 822 191 804 210 789 225 c 0
 774 240 755 258 755 275 c 0
 755 292 774 310 789 325 c 0
 804 340 822 359 839 359 c 0
 856 359 874 340 889 325 c 0
 904 310 923 292 923 275 c 0
EndSplineSet
EndChar

StartChar: sym09B
Encoding: 50 -1 50
Width: 1250
Flags: W
HStem: -260 77<481.908 577 673 768.092> 733 77<481.908 577 673 768.092>
VStem: 90 74<136.806 413.194> 577 96<-183 121.111 428.889 733> 586 78<-96.1111 208 342 646.111> 1086 74<136.806 413.194>
LayerCount: 2
Back
Fore
SplineSet
664 342 m 1xec
 998 546 l 1
 984 565 968 584 951 601 c 0
 876 676 778 722 673 733 c 1xf4
 664 342 l 1xec
586 342 m 1xec
 577 733 l 1xf4
 472 722 374 676 299 601 c 0
 282 584 266 565 252 546 c 1
 586 342 l 1xec
548 275 m 1
 204 462 l 1
 178 404 164 340 164 275 c 0
 164 210 178 146 204 88 c 1
 548 275 l 1
586 208 m 1xec
 252 4 l 1
 266 -15 282 -34 299 -51 c 0
 374 -126 472 -172 577 -183 c 1xf4
 586 208 l 1xec
664 208 m 1xec
 673 -183 l 1xf4
 778 -172 876 -126 951 -51 c 0
 968 -34 984 -15 998 4 c 1
 664 208 l 1xec
703 275 m 1
 1046 88 l 1
 1072 146 1086 210 1086 275 c 0
 1086 340 1072 404 1046 462 c 1
 703 275 l 1
1160 275 m 0
 1160 133 1104 -3 1003 -103 c 0
 903 -204 767 -260 625 -260 c 0
 483 -260 347 -204 247 -103 c 0
 146 -3 90 133 90 275 c 0
 90 417 146 553 247 653 c 0
 347 754 483 810 625 810 c 0
 767 810 903 754 1003 653 c 0
 1104 553 1160 417 1160 275 c 0
EndSplineSet
EndChar

StartChar: sym09B.disp
Encoding: 51 -1 51
Width: 1678
Flags: W
HStem: -474 76<665.192 791 887 1012.81> 948 76<665.192 791 887 1012.81>
VStem: 90 74<109.904 440.096> 791 96<-398 26.9 523.1 948> 801 76<-215.9 209 341 765.9> 1514 74<109.904 440.096>
LayerCount: 2
Back
Fore
SplineSet
877 341 m 1xec
 1398 654 l 1
 1374 689 1346 722 1316 752 c 0
 1201 868 1048 936 887 948 c 1xf4
 877 341 l 1xec
801 341 m 1xec
 791 948 l 1xf4
 630 936 477 868 362 752 c 0
 332 722 304 689 280 654 c 1
 801 341 l 1xec
762 275 m 1
 232 569 l 1
 188 478 164 378 164 275 c 0
 164 172 188 72 232 -19 c 1
 762 275 l 1
801 209 m 1xec
 280 -104 l 1
 304 -139 332 -172 362 -202 c 0
 477 -318 630 -386 791 -398 c 1xf4
 801 209 l 1xec
877 209 m 1xec
 887 -398 l 1xf4
 1048 -386 1201 -318 1316 -202 c 0
 1346 -172 1374 -139 1398 -104 c 1
 877 209 l 1xec
915 275 m 1
 1446 -19 l 1
 1490 72 1514 172 1514 275 c 0
 1514 378 1490 478 1446 569 c 1
 915 275 l 1
1588 275 m 0
 1588 76 1509 -114 1369 -255 c 0
 1228 -395 1038 -474 839 -474 c 0
 640 -474 450 -395 309 -255 c 0
 169 -114 90 76 90 275 c 0
 90 474 169 664 309 805 c 0
 450 945 640 1024 839 1024 c 0
 1038 1024 1228 945 1369 805 c 0
 1509 664 1588 474 1588 275 c 0
EndSplineSet
EndChar

StartChar: product
Encoding: 52 8719 52
Width: 1080
Flags: W
HStem: -260 46<98 159.875 333.625 395 685 746.375 920.125 982> 736 74<298 782> 764 46<92 160.875 919.125 988>
VStem: 196 102<-185.592 735.592> 782 102<-185.592 735.592>
LayerCount: 2
Back
Fore
SplineSet
98 -260 m 1xd8
 90 -214 l 1
 135 -202 196 -186 196 -161 c 2
 196 711 l 2
 196 736 137 752 92 764 c 1
 90 810 l 1
 990 810 l 1
 988 764 l 1xb8
 943 752 884 736 884 711 c 2
 884 -161 l 2
 884 -186 945 -202 990 -214 c 1
 982 -260 l 1
 685 -260 l 1
 677 -214 l 1
 722 -202 782 -186 782 -161 c 2
 782 736 l 1
 298 736 l 1
 298 -161 l 2
 298 -186 358 -202 403 -214 c 1
 395 -260 l 1
 98 -260 l 1xd8
EndSplineSet
EndChar

StartChar: product.disp
Encoding: 53 -1 53
Width: 1440
Flags: W
HStem: -474 50<99 161.564 359.436 422 1018 1080.56 1278.44 1341> 944 80<316 1124> 974 50<93 162.807 1277.19 1347>
VStem: 205 111<-392.25 942.25> 1124 111<-392.25 942.25>
LayerCount: 2
Back
Fore
SplineSet
99 -474 m 1xd8
 90 -424 l 1
 139 -411 205 -394 205 -366 c 2
 205 916 l 2
 205 944 141 961 93 974 c 1
 90 1024 l 1
 1350 1024 l 1
 1347 974 l 1xb8
 1299 961 1235 944 1235 916 c 2
 1235 -366 l 2
 1235 -394 1301 -411 1350 -424 c 1
 1341 -474 l 1
 1018 -474 l 1
 1009 -424 l 1
 1058 -411 1124 -394 1124 -366 c 2
 1124 944 l 1
 316 944 l 1
 316 -366 l 2
 316 -394 382 -411 431 -424 c 1
 422 -474 l 1
 99 -474 l 1xd8
EndSplineSet
EndChar

StartChar: product.sf
Encoding: 54 -1 54
Width: 1080
Flags: W
HStem: 711 99<90 195 294 786 885 990>
VStem: 195 99<-260 711> 786 99<-260 711>
LayerCount: 2
Back
Fore
SplineSet
195 -260 m 1
 195 711 l 1
 90 711 l 1
 90 810 l 1
 990 810 l 1
 990 711 l 1
 885 711 l 1
 885 -260 l 1
 786 -260 l 1
 786 711 l 1
 294 711 l 1
 294 -260 l 1
 195 -260 l 1
EndSplineSet
EndChar

StartChar: product.sf.disp
Encoding: 55 -1 55
Width: 1440
Flags: W
HStem: 917 107<90 204 312 1128 1236 1350>
VStem: 204 108<-474 917> 1128 108<-474 917>
LayerCount: 2
Back
Fore
SplineSet
204 -474 m 1
 204 917 l 1
 90 917 l 1
 90 1024 l 1
 1350 1024 l 1
 1350 917 l 1
 1236 917 l 1
 1236 -474 l 1
 1128 -474 l 1
 1128 917 l 1
 312 917 l 1
 312 -474 l 1
 204 -474 l 1
EndSplineSet
EndChar

StartChar: uni2210
Encoding: 56 8720 56
Width: 1080
Flags: W
HStem: -260 74<298 782> -260 46<92 160.875 919.125 988> 764 46<98 159.875 333.625 395 685 746.375 920.125 982>
VStem: 196 102<-185.592 735.592> 782 102<-185.592 735.592>
LayerCount: 2
Back
Fore
SplineSet
98 810 m 1x78
 395 810 l 1
 403 764 l 1
 358 752 298 736 298 711 c 2
 298 -186 l 1
 782 -186 l 1xb8
 782 711 l 2
 782 736 722 752 677 764 c 1
 685 810 l 1
 982 810 l 1
 990 764 l 1
 945 752 884 736 884 711 c 2
 884 -161 l 2
 884 -186 943 -202 988 -214 c 1
 990 -260 l 1
 90 -260 l 1
 92 -214 l 1
 137 -202 196 -186 196 -161 c 2
 196 711 l 2
 196 736 135 752 90 764 c 1
 98 810 l 1x78
EndSplineSet
EndChar

StartChar: uni2210.disp
Encoding: 57 -1 57
Width: 1440
Flags: W
HStem: -474 80<316 1124> -474 50<93 162.807 1277.19 1347> 974 50<99 161.564 359.436 422 1018 1080.56 1278.44 1341>
VStem: 205 111<-392.25 942.25> 1124 111<-392.25 942.25>
LayerCount: 2
Back
Fore
SplineSet
99 1024 m 1x78
 422 1024 l 1
 431 974 l 1
 382 961 316 944 316 916 c 2
 316 -394 l 1
 1124 -394 l 1xb8
 1124 916 l 2
 1124 944 1058 961 1009 974 c 1
 1018 1024 l 1
 1341 1024 l 1
 1350 974 l 1
 1301 961 1235 944 1235 916 c 2
 1235 -366 l 2
 1235 -394 1299 -411 1347 -424 c 1
 1350 -474 l 1
 90 -474 l 1
 93 -424 l 1
 141 -411 205 -394 205 -366 c 2
 205 916 l 2
 205 944 139 961 90 974 c 1
 99 1024 l 1x78
EndSplineSet
EndChar

StartChar: uni2210.sf
Encoding: 58 -1 58
Width: 1080
Flags: W
HStem: -260 99<90 195 294 786 885 990>
VStem: 195 99<-161 810> 786 99<-161 810>
LayerCount: 2
Back
Fore
SplineSet
195 810 m 1
 294 810 l 1
 294 -161 l 1
 786 -161 l 1
 786 810 l 1
 885 810 l 1
 885 -161 l 1
 990 -161 l 1
 990 -260 l 1
 90 -260 l 1
 90 -161 l 1
 195 -161 l 1
 195 810 l 1
EndSplineSet
EndChar

StartChar: uni2210.sf.disp
Encoding: 59 -1 59
Width: 1440
Flags: W
HStem: -474 107<90 204 312 1128 1236 1350>
VStem: 204 108<-367 1024> 1128 108<-367 1024>
LayerCount: 2
Back
Fore
SplineSet
204 1024 m 1
 312 1024 l 1
 312 -367 l 1
 1128 -367 l 1
 1128 1024 l 1
 1236 1024 l 1
 1236 -367 l 1
 1350 -367 l 1
 1350 -474 l 1
 90 -474 l 1
 90 -367 l 1
 204 -367 l 1
 204 1024 l 1
EndSplineSet
EndChar

StartChar: summation
Encoding: 60 8721 60
Width: 900
Flags: W
HStem: 742 68<220 710.564>
VStem: 773 37<657 686.951>
LayerCount: 2
Back
Fore
SplineSet
107 -260 m 1
 90 -186 l 1
 388 264 l 1
 90 727 l 1
 109 810 l 1
 810 810 l 1
 810 657 l 1
 773 657 l 1
 750 712 690 738 630 738 c 2
 220 742 l 1
 512 286 l 1
 200 -186 l 1
 612 -165 l 2
 687 -161 780 -157 792 -103 c 1
 828 -112 l 1
 787 -260 l 1
 107 -260 l 1
EndSplineSet
EndChar

StartChar: summation.disp
Encoding: 61 -1 61
Width: 1188
Flags: W
HStem: -474 103<630.364 1019.76> -474 81<209 405.636> 950 74<230 979.341>
VStem: 1058 40<858 889.136>
LayerCount: 2
Back
Fore
SplineSet
109 -474 m 1x70
 90 -393 l 1
 527 263 l 1
 90 934 l 1
 111 1024 l 1
 1098 1024 l 1
 1098 858 l 1
 1058 858 l 1
 1026 934 932 946 846 946 c 2
 230 950 l 1
 661 287 l 1
 209 -393 l 1x70
 827 -371 l 2xb0
 929 -367 1065 -362 1078 -303 c 1
 1118 -313 l 1
 1072 -474 l 1
 109 -474 l 1x70
EndSplineSet
EndChar

StartChar: summation.sf
Encoding: 62 -1 62
Width: 900
Flags: W
HStem: -260 102<217 810> 708 102<217 810>
LayerCount: 2
Back
Fore
SplineSet
90 -260 m 1
 90 -158 l 1
 387 275 l 1
 90 708 l 1
 90 810 l 1
 810 810 l 1
 810 708 l 1
 217 708 l 1
 513 275 l 1
 217 -158 l 1
 810 -158 l 1
 810 -260 l 1
 90 -260 l 1
EndSplineSet
EndChar

StartChar: summation.sf.disp
Encoding: 63 -1 63
Width: 1188
Flags: W
HStem: -474 111<227 1098> 913 111<227 1098>
LayerCount: 2
Back
Fore
SplineSet
90 -474 m 1
 90 -363 l 1
 526 275 l 1
 90 913 l 1
 90 1024 l 1
 1098 1024 l 1
 1098 913 l 1
 227 913 l 1
 662 275 l 1
 227 -363 l 1
 1098 -363 l 1
 1098 -474 l 1
 90 -474 l 1
EndSplineSet
EndChar

StartChar: uni2A0A
Encoding: 64 10762 64
Width: 900
Flags: W
HStem: 58 74<413.523 523.795> 418 74<429.382 523.795> 742 68<220 710.564>
VStem: 233 74<199.763 350.583> 593 74<201.205 348.795> 773 37<657 686.951>
LayerCount: 2
Back
Fore
SplineSet
330 353 m 1
 315 330 307 303 307 275 c 0
 307 243 317 212 337 187 c 1
 388 264 l 1
 330 353 l 1
450 492 m 0
 568 492 667 393 667 275 c 0
 667 157 568 58 450 58 c 0
 423 58 396 63 371 73 c 1
 200 -186 l 1
 612 -165 l 2
 687 -161 780 -157 792 -103 c 1
 828 -112 l 1
 787 -260 l 1
 107 -260 l 1
 90 -186 l 1
 295 124 l 1
 255 164 233 218 233 275 c 0
 233 329 252 380 288 419 c 1
 90 727 l 1
 109 810 l 1
 810 810 l 1
 810 657 l 1
 773 657 l 1
 750 712 690 738 630 738 c 2
 220 742 l 1
 386 482 l 1
 406 488 428 492 450 492 c 0
450 132 m 0
 528 132 593 197 593 275 c 0
 593 353 528 418 450 418 c 0
 443 418 436 417 429 416 c 1
 512 286 l 1
 413 137 l 1
 425 134 437 132 450 132 c 0
EndSplineSet
EndChar

StartChar: uni2A0A.disp
Encoding: 65 -1 65
Width: 1188
Flags: W
HStem: -474 103<630.364 1019.76> -474 81<209 405.636> -63 80<495.861 695.952> 533 80<511.398 695.952> 950 74<230 979.341>
VStem: 256 80<173.253 377.097> 852 80<173.048 376.952> 1058 40<858 889.136>
LayerCount: 2
Back
Fore
SplineSet
405 450 m 1x3f
 360 403 336 340 336 275 c 0
 336 205 364 141 413 92 c 1
 527 263 l 1
 405 450 l 1x3f
256 275 m 0
 256 369 294 455 360 519 c 1
 90 934 l 1
 111 1024 l 1
 1098 1024 l 1
 1098 858 l 1
 1058 858 l 1
 1026 934 932 946 846 946 c 2
 230 950 l 1
 465 588 l 1
 505 604 549 613 594 613 c 0
 684 613 770 578 833 514 c 0
 897 451 932 365 932 275 c 0
 932 185 897 99 833 36 c 0
 770 -28 684 -63 594 -63 c 0
 543 -63 495 -52 450 -31 c 1
 209 -393 l 1x7f
 827 -371 l 2xbf
 929 -367 1065 -362 1078 -303 c 1
 1118 -313 l 1
 1072 -474 l 1
 109 -474 l 1
 90 -393 l 1x7f
 368 24 l 1
 299 87 256 178 256 275 c 0
852 275 m 0
 852 343 825 409 776 457 c 0
 728 506 662 533 594 533 c 0
 565 533 537 528 510 519 c 1
 661 287 l 1
 495 37 l 1
 526 24 560 17 594 17 c 0
 662 17 728 44 776 93 c 0
 825 141 852 207 852 275 c 0
EndSplineSet
EndChar

StartChar: uni2A0A.sf
Encoding: 66 -1 66
Width: 900
Flags: W
HStem: -260 102<217 810> 58 74<418.458 523.795> 418 74<418.458 523.795> 708 102<217 810>
VStem: 233 74<201.323 348.677> 593 74<201.205 348.795>
LayerCount: 2
Back
Fore
SplineSet
332 355 m 1
 316 331 307 304 307 275 c 0
 307 246 316 219 332 195 c 1
 387 275 l 1
 332 355 l 1
450 492 m 0
 568 492 667 393 667 275 c 0
 667 157 568 58 450 58 c 0
 424 58 398 63 374 72 c 1
 217 -158 l 1
 810 -158 l 1
 810 -260 l 1
 90 -260 l 1
 90 -158 l 1
 288 131 l 1
 252 170 233 221 233 275 c 0
 233 329 252 380 288 419 c 1
 90 708 l 1
 90 810 l 1
 810 810 l 1
 810 708 l 1
 217 708 l 1
 374 478 l 1
 398 487 424 492 450 492 c 0
450 132 m 0
 528 132 593 197 593 275 c 0
 593 353 528 418 450 418 c 0
 439 418 428 416 418 414 c 1
 513 275 l 1
 418 136 l 1
 428 134 439 132 450 132 c 0
EndSplineSet
EndChar

StartChar: uni2A0A.sf.disp
Encoding: 67 -1 67
Width: 1188
Flags: W
HStem: -474 111<227 1098> -63 80<500.775 695.952> 533 80<500.775 695.952> 913 111<227 1098>
VStem: 256 80<172.838 377.162> 852 80<173.048 376.952>
LayerCount: 2
Back
Fore
SplineSet
406 451 m 1
 361 404 336 340 336 275 c 0
 336 210 361 146 406 99 c 1
 526 275 l 1
 406 451 l 1
256 275 m 0
 256 368 295 455 360 519 c 1
 90 913 l 1
 90 1024 l 1
 1098 1024 l 1
 1098 913 l 1
 227 913 l 1
 452 582 l 1
 496 602 545 613 594 613 c 0
 684 613 770 578 833 514 c 0
 897 451 932 365 932 275 c 0
 932 185 897 99 833 36 c 0
 770 -28 684 -63 594 -63 c 0
 545 -63 496 -52 452 -32 c 1
 227 -363 l 1
 1098 -363 l 1
 1098 -474 l 1
 90 -474 l 1
 90 -363 l 1
 360 31 l 1
 295 95 256 182 256 275 c 0
852 275 m 0
 852 343 825 409 776 457 c 0
 728 506 662 533 594 533 c 0
 561 533 529 527 499 515 c 1
 662 275 l 1
 499 35 l 1
 529 23 561 17 594 17 c 0
 662 17 728 44 776 93 c 0
 825 141 852 207 852 275 c 0
EndSplineSet
EndChar

StartChar: integral
Encoding: 68 8747 68
Width: 476
Flags: W
HStem: -328 82<112 202.015> 798 80<387.94 488.284>
VStem: 251 98<-190.975 747.775>
LayerCount: 2
Back
Fore
SplineSet
509 872 m 1
 488 792 l 1
 472 796 456 798 439 798 c 0
 376 798 349 724 349 651 c 2
 349 -96 l 2
 349 -224 245 -328 117 -328 c 0
 115 -328 114 -328 112 -328 c 1
 101 -246 l 1
 150 -246 l 2
 217 -246 251 -171 251 -96 c 2
 251 651 l 2
 251 773 342 877 461 878 c 0
 477 878 493 876 509 872 c 1
EndSplineSet
EndChar

StartChar: integral.disp
Encoding: 69 -1 69
Width: 686
Flags: W
HStem: -811 96<121 251.22> 1268 93<660.049 813.734>
VStem: 411 114<-538.355 1098.06>
LayerCount: 2
Back
Fore
SplineSet
840 1354 m 1
 815 1260 l 1
 788 1265 761 1268 733 1268 c 0
 598 1268 525 1120 525 969 c 2
 525 -413 l 2
 525 -633 345 -811 126 -811 c 0
 124 -811 123 -811 121 -811 c 1
 108 -715 l 1
 190 -715 l 2
 330 -715 411 -567 411 -413 c 2
 411 969 l 2
 411 1174 558 1351 758 1361 c 0
 763 1361 768 1361 772 1361 c 0
 795 1361 817 1359 840 1354 c 1
EndSplineSet
EndChar

StartChar: uni222C
Encoding: 70 8748 70
Width: 776
Flags: W
HStem: -328 82<112 202.015 412 502.015> 798 80<387.94 488.284 687.94 788.284>
VStem: 251 98<-190.975 747.775> 551 98<-190.975 747.775>
LayerCount: 2
Back
Fore
SplineSet
509 872 m 1
 488 792 l 1
 472 796 456 798 439 798 c 0
 376 798 349 724 349 651 c 2
 349 -96 l 2
 349 -224 245 -328 117 -328 c 0
 115 -328 114 -328 112 -328 c 1
 101 -246 l 1
 150 -246 l 2
 217 -246 251 -171 251 -96 c 2
 251 651 l 2
 251 773 342 877 461 878 c 0
 477 878 493 876 509 872 c 1
809 872 m 1
 788 792 l 1
 772 796 756 798 739 798 c 0
 676 798 649 724 649 651 c 2
 649 -96 l 2
 649 -224 545 -328 417 -328 c 0
 415 -328 414 -328 412 -328 c 1
 401 -246 l 1
 450 -246 l 2
 517 -246 551 -171 551 -96 c 2
 551 651 l 2
 551 773 642 877 761 878 c 0
 777 878 794 876 809 872 c 1
EndSplineSet
EndChar

StartChar: uni222C.disp
Encoding: 71 -1 71
Width: 1226
Flags: W
HStem: -811 96<121 251.22 661 791.22> 1260 94<773.077 816.862 1313.08 1356.86> 1268 93<660.049 813.734 1200.05 1353.73>
VStem: 411 114<-538.355 1098.06> 951 114<-538.355 1098.06>
LayerCount: 2
Back
Fore
SplineSet
840 1354 m 1xd8
 815 1260 l 1xd8
 788 1265 761 1268 733 1268 c 0
 598 1268 525 1120 525 969 c 2
 525 -413 l 2
 525 -633 345 -811 126 -811 c 0
 124 -811 123 -811 121 -811 c 1
 108 -715 l 1
 190 -715 l 2
 330 -715 411 -567 411 -413 c 2
 411 969 l 2
 411 1174 558 1351 758 1361 c 0
 763 1361 768 1361 772 1361 c 0xb8
 795 1361 817 1359 840 1354 c 1xd8
1380 1354 m 1
 1355 1260 l 1xd8
 1328 1265 1301 1268 1273 1268 c 0
 1138 1268 1065 1120 1065 969 c 2
 1065 -413 l 2
 1065 -633 885 -811 666 -811 c 0
 664 -811 663 -811 661 -811 c 1
 648 -715 l 1
 730 -715 l 2
 870 -715 951 -567 951 -413 c 2
 951 969 l 2
 951 1174 1098 1351 1298 1361 c 0
 1303 1361 1308 1361 1312 1361 c 0xb8
 1335 1361 1357 1359 1380 1354 c 1
EndSplineSet
EndChar

StartChar: uni222D
Encoding: 72 8749 72
Width: 1076
Flags: W
HStem: -328 82<112 202.015 412 502.015 712 802.015> 798 80<387.94 488.284 687.94 788.284 987.94 1088.28>
VStem: 251 98<-190.975 747.775> 551 98<-190.975 747.775> 851 98<-190.975 747.775>
CounterMasks: 1 38
LayerCount: 2
Back
Fore
SplineSet
509 872 m 1
 488 792 l 1
 472 796 456 798 439 798 c 0
 376 798 349 724 349 651 c 2
 349 -96 l 2
 349 -224 245 -328 117 -328 c 0
 115 -328 114 -328 112 -328 c 1
 101 -246 l 1
 150 -246 l 2
 217 -246 251 -171 251 -96 c 2
 251 651 l 2
 251 773 342 877 461 878 c 0
 477 878 493 876 509 872 c 1
809 872 m 1
 788 792 l 1
 772 796 756 798 739 798 c 0
 676 798 649 724 649 651 c 2
 649 -96 l 2
 649 -224 545 -328 417 -328 c 0
 415 -328 414 -328 412 -328 c 1
 401 -246 l 1
 450 -246 l 2
 517 -246 551 -171 551 -96 c 2
 551 651 l 2
 551 773 642 877 761 878 c 0
 777 878 794 876 809 872 c 1
1109 872 m 1
 1088 792 l 1
 1072 796 1056 798 1039 798 c 0
 976 798 949 724 949 651 c 2
 949 -96 l 2
 949 -224 845 -328 717 -328 c 0
 715 -328 714 -328 712 -328 c 1
 701 -246 l 1
 750 -246 l 2
 817 -246 851 -171 851 -96 c 2
 851 651 l 2
 851 773 942 877 1061 878 c 0
 1077 878 1094 876 1109 872 c 1
EndSplineSet
EndChar

StartChar: uni222D.disp
Encoding: 73 -1 73
Width: 1766
Flags: W
HStem: -811 96<121 251.22 661 791.22 1201 1331.22> 1260 94<773.077 816.862 1313.08 1356.86 1853.08 1896.86> 1268 93<660.049 813.734 1200.05 1353.73 1740.05 1893.73>
VStem: 411 114<-538.355 1098.06> 951 114<-538.355 1098.06> 1491 114<-538.355 1098.06>
CounterMasks: 1 1c
LayerCount: 2
Back
Fore
SplineSet
840 1354 m 1xdc
 815 1260 l 1xdc
 788 1265 761 1268 733 1268 c 0
 598 1268 525 1120 525 969 c 2
 525 -413 l 2
 525 -633 345 -811 126 -811 c 0
 124 -811 123 -811 121 -811 c 1
 108 -715 l 1
 190 -715 l 2
 330 -715 411 -567 411 -413 c 2
 411 969 l 2
 411 1174 558 1351 758 1361 c 0
 763 1361 768 1361 772 1361 c 0xbc
 795 1361 817 1359 840 1354 c 1xdc
1380 1354 m 1
 1355 1260 l 1xdc
 1328 1265 1301 1268 1273 1268 c 0
 1138 1268 1065 1120 1065 969 c 2
 1065 -413 l 2
 1065 -633 885 -811 666 -811 c 0
 664 -811 663 -811 661 -811 c 1
 648 -715 l 1
 730 -715 l 2
 870 -715 951 -567 951 -413 c 2
 951 969 l 2
 951 1174 1098 1351 1298 1361 c 0
 1303 1361 1308 1361 1312 1361 c 0xbc
 1335 1361 1357 1359 1380 1354 c 1
1920 1354 m 1
 1895 1260 l 1xdc
 1868 1265 1841 1268 1813 1268 c 0
 1678 1268 1605 1120 1605 969 c 2
 1605 -413 l 2
 1605 -633 1425 -811 1206 -811 c 0
 1204 -811 1203 -811 1201 -811 c 1
 1188 -715 l 1
 1270 -715 l 2
 1410 -715 1491 -567 1491 -413 c 2
 1491 969 l 2
 1491 1174 1638 1351 1838 1361 c 0
 1843 1361 1848 1361 1852 1361 c 0xbc
 1875 1361 1897 1359 1920 1354 c 1
EndSplineSet
EndChar

StartChar: uni2A0C
Encoding: 74 10764 74
Width: 1376
Flags: W
HStem: -328 82<112 202.015 412 502.015 712 802.015 1012 1102.01> 798 80<387.94 488.284 687.94 788.284 987.94 1088.28 1287.94 1388.28>
VStem: 251 98<-190.975 747.775> 551 98<-190.975 747.775> 851 98<-190.975 747.775> 1151 98<-190.975 747.775>
LayerCount: 2
Back
Fore
SplineSet
509 872 m 1
 488 792 l 1
 472 796 456 798 439 798 c 0
 376 798 349 724 349 651 c 2
 349 -96 l 2
 349 -224 245 -328 117 -328 c 0
 115 -328 114 -328 112 -328 c 1
 101 -246 l 1
 150 -246 l 2
 217 -246 251 -171 251 -96 c 2
 251 651 l 2
 251 773 342 877 461 878 c 0
 477 878 493 876 509 872 c 1
809 872 m 1
 788 792 l 1
 772 796 756 798 739 798 c 0
 676 798 649 724 649 651 c 2
 649 -96 l 2
 649 -224 545 -328 417 -328 c 0
 415 -328 414 -328 412 -328 c 1
 401 -246 l 1
 450 -246 l 2
 517 -246 551 -171 551 -96 c 2
 551 651 l 2
 551 773 642 877 761 878 c 0
 777 878 794 876 809 872 c 1
1109 872 m 1
 1088 792 l 1
 1072 796 1056 798 1039 798 c 0
 976 798 949 724 949 651 c 2
 949 -96 l 2
 949 -224 845 -328 717 -328 c 0
 715 -328 714 -328 712 -328 c 1
 701 -246 l 1
 750 -246 l 2
 817 -246 851 -171 851 -96 c 2
 851 651 l 2
 851 773 942 877 1061 878 c 0
 1077 878 1094 876 1109 872 c 1
1409 872 m 1
 1388 792 l 1
 1372 796 1356 798 1339 798 c 0
 1276 798 1249 724 1249 651 c 2
 1249 -96 l 2
 1249 -224 1145 -328 1017 -328 c 0
 1015 -328 1014 -328 1012 -328 c 1
 1001 -246 l 1
 1050 -246 l 2
 1117 -246 1151 -171 1151 -96 c 2
 1151 651 l 2
 1151 773 1242 877 1361 878 c 0
 1377 878 1394 876 1409 872 c 1
EndSplineSet
EndChar

StartChar: uni2A0C.disp
Encoding: 75 -1 75
Width: 2306
Flags: W
HStem: -811 96<121 251.22 661 791.22 1201 1331.22 1741 1871.22> 1260 94<773.077 816.862 1313.08 1356.86 1853.08 1896.86 2393.08 2436.86> 1268 93<660.049 813.734 1200.05 1353.73 1740.05 1893.73 2280.05 2433.73>
VStem: 411 114<-538.355 1098.06> 951 114<-538.355 1098.06> 1491 114<-538.355 1098.06> 2031 114<-538.355 1098.06>
LayerCount: 2
Back
Fore
SplineSet
840 1354 m 1xde
 815 1260 l 1xde
 788 1265 761 1268 733 1268 c 0
 598 1268 525 1120 525 969 c 2
 525 -413 l 2
 525 -633 345 -811 126 -811 c 0
 124 -811 123 -811 121 -811 c 1
 108 -715 l 1
 190 -715 l 2
 330 -715 411 -567 411 -413 c 2
 411 969 l 2
 411 1174 558 1351 758 1361 c 0
 763 1361 768 1361 772 1361 c 0xbe
 795 1361 817 1359 840 1354 c 1xde
1380 1354 m 1
 1355 1260 l 1xde
 1328 1265 1301 1268 1273 1268 c 0
 1138 1268 1065 1120 1065 969 c 2
 1065 -413 l 2
 1065 -633 885 -811 666 -811 c 0
 664 -811 663 -811 661 -811 c 1
 648 -715 l 1
 730 -715 l 2
 870 -715 951 -567 951 -413 c 2
 951 969 l 2
 951 1174 1098 1351 1298 1361 c 0
 1303 1361 1308 1361 1312 1361 c 0xbe
 1335 1361 1357 1359 1380 1354 c 1
1920 1354 m 1
 1895 1260 l 1xde
 1868 1265 1841 1268 1813 1268 c 0
 1678 1268 1605 1120 1605 969 c 2
 1605 -413 l 2
 1605 -633 1425 -811 1206 -811 c 0
 1204 -811 1203 -811 1201 -811 c 1
 1188 -715 l 1
 1270 -715 l 2
 1410 -715 1491 -567 1491 -413 c 2
 1491 969 l 2
 1491 1174 1638 1351 1838 1361 c 0
 1843 1361 1848 1361 1852 1361 c 0xbe
 1875 1361 1897 1359 1920 1354 c 1
2460 1354 m 1
 2435 1260 l 1xde
 2408 1265 2381 1268 2353 1268 c 0
 2218 1268 2145 1120 2145 969 c 2
 2145 -413 l 2
 2145 -633 1965 -811 1746 -811 c 0
 1744 -811 1743 -811 1741 -811 c 1
 1728 -715 l 1
 1810 -715 l 2
 1950 -715 2031 -567 2031 -413 c 2
 2031 969 l 2
 2031 1174 2178 1351 2378 1361 c 0
 2383 1361 2388 1361 2392 1361 c 0xbe
 2415 1361 2437 1359 2460 1354 c 1
EndSplineSet
EndChar

StartChar: uni222B22EF222B
Encoding: 76 -1 76
Width: 1882
Flags: W
HStem: -328 82<112 202.015 1368 1458.01> 194 168<576.513 651.487 890.513 965.487 1204.51 1279.49> 798 80<387.94 488.284 1643.94 1744.28>
VStem: 251 98<-190.975 747.775> 530 168<239.687 315.331> 844 168<239.687 315.331> 1158 168<239.687 315.331> 1507 98<-190.975 747.775>
LayerCount: 2
Back
Fore
SplineSet
509 872 m 1
 488 792 l 1
 472 796 456 798 439 798 c 0
 376 798 349 724 349 651 c 2
 349 -96 l 2
 349 -224 245 -328 117 -328 c 0
 115 -328 114 -328 112 -328 c 1
 101 -246 l 1
 150 -246 l 2
 217 -246 251 -171 251 -96 c 2
 251 651 l 2
 251 773 342 877 461 878 c 0
 477 878 493 876 509 872 c 1
1765 872 m 1
 1744 792 l 1
 1728 796 1712 798 1695 798 c 0
 1632 798 1605 724 1605 651 c 2
 1605 -96 l 2
 1605 -224 1501 -328 1373 -328 c 0
 1371 -328 1370 -328 1368 -328 c 1
 1357 -246 l 1
 1406 -246 l 2
 1473 -246 1507 -171 1507 -96 c 2
 1507 651 l 2
 1507 773 1598 877 1717 878 c 0
 1733 878 1749 876 1765 872 c 1
698 278 m 0
 698 261 679 242 664 227 c 0
 649 212 631 194 614 194 c 0
 597 194 579 212 564 227 c 0
 549 242 530 261 530 278 c 0
 530 294 549 313 564 328 c 0
 579 343 597 362 614 362 c 0
 631 362 649 343 664 328 c 0
 679 313 698 294 698 278 c 0
1012 278 m 0
 1012 261 993 242 978 227 c 0
 963 212 945 194 928 194 c 0
 911 194 893 212 878 227 c 0
 863 242 844 261 844 278 c 0
 844 294 863 313 878 328 c 0
 893 343 911 362 928 362 c 0
 945 362 963 343 978 328 c 0
 993 313 1012 294 1012 278 c 0
1326 278 m 0
 1326 261 1307 242 1292 227 c 0
 1277 212 1259 194 1242 194 c 0
 1225 194 1207 212 1192 227 c 0
 1177 242 1158 261 1158 278 c 0
 1158 294 1177 313 1192 328 c 0
 1207 343 1225 362 1242 362 c 0
 1259 362 1277 343 1292 328 c 0
 1307 313 1326 294 1326 278 c 0
EndSplineSet
EndChar

StartChar: uni222B22EF222B.disp
Encoding: 77 -1 77
Width: 2332
Flags: W
HStem: -811 96<121 251.22 1497 1627.22> 194 168<774.513 849.487 1118.51 1193.49 1462.51 1537.49> 1260 94<773.077 816.862 2149.08 2192.86> 1268 93<660.049 813.734 2036.05 2189.73>
VStem: 411 114<-538.355 1098.06> 728 168<240.513 315.487> 1072 168<240.513 315.487> 1416 168<240.513 315.487> 1787 114<-538.355 1098.06>
LayerCount: 2
Back
Fore
SplineSet
840 1354 m 1xef80
 815 1260 l 1xef80
 788 1265 761 1268 733 1268 c 0
 598 1268 525 1120 525 969 c 2
 525 -413 l 2
 525 -633 345 -811 126 -811 c 0
 124 -811 123 -811 121 -811 c 1
 108 -715 l 1
 190 -715 l 2
 330 -715 411 -567 411 -413 c 2
 411 969 l 2
 411 1174 558 1351 758 1361 c 0
 763 1361 768 1361 772 1361 c 0xdf80
 795 1361 817 1359 840 1354 c 1xef80
2216 1354 m 1
 2191 1260 l 1xef80
 2164 1265 2137 1268 2109 1268 c 0
 1974 1268 1901 1120 1901 969 c 2
 1901 -413 l 2
 1901 -633 1721 -811 1502 -811 c 0
 1500 -811 1499 -811 1497 -811 c 1
 1484 -715 l 1
 1566 -715 l 2
 1706 -715 1787 -567 1787 -413 c 2
 1787 969 l 2
 1787 1174 1934 1351 2134 1361 c 0
 2139 1361 2144 1361 2148 1361 c 0xdf80
 2171 1361 2193 1359 2216 1354 c 1
896 278 m 0
 896 261 877 243 862 228 c 0
 847 213 829 194 812 194 c 0
 795 194 777 213 762 228 c 0
 747 243 728 261 728 278 c 0
 728 295 747 313 762 328 c 0
 777 343 795 362 812 362 c 0
 829 362 847 343 862 328 c 0
 877 313 896 295 896 278 c 0
1240 278 m 0
 1240 261 1221 243 1206 228 c 0
 1191 213 1173 194 1156 194 c 0
 1139 194 1121 213 1106 228 c 0
 1091 243 1072 261 1072 278 c 0
 1072 295 1091 313 1106 328 c 0
 1121 343 1139 362 1156 362 c 0
 1173 362 1191 343 1206 328 c 0
 1221 313 1240 295 1240 278 c 0
1584 278 m 0
 1584 261 1565 243 1550 228 c 0
 1535 213 1517 194 1500 194 c 0
 1483 194 1465 213 1450 228 c 0
 1435 243 1416 261 1416 278 c 0
 1416 295 1435 313 1450 328 c 0
 1465 343 1483 362 1500 362 c 0
 1517 362 1535 343 1550 328 c 0
 1565 313 1584 295 1584 278 c 0
EndSplineSet
EndChar

StartChar: uni2231
Encoding: 78 8753 78
Width: 720
Flags: W
HStem: -328 82<172 262.015> 174 62<457.435 516> 295 76<254.314 311> 798 80<447.94 548.284>
VStem: 311 98<-190.975 295 366.838 747.775> 557 61<300 360.574>
LayerCount: 2
Back
Fore
SplineSet
633 190 m 1
 458 174 l 1
 453 236 l 1
 516 242 l 1
 483 267 448 286 409 295 c 1
 409 -96 l 2
 409 -224 305 -328 177 -328 c 0
 175 -328 174 -328 172 -328 c 1
 161 -246 l 1
 210 -246 l 2
 277 -246 311 -171 311 -96 c 2
 311 295 l 1
 248 280 193 238 146 191 c 1
 94 244 l 1
 155 305 228 356 311 371 c 1
 311 651 l 2
 311 773 402 877 521 878 c 0
 537 878 554 876 569 872 c 1
 548 792 l 1
 532 796 516 798 499 798 c 0
 436 798 409 724 409 651 c 2
 409 371 l 1
 465 361 516 335 562 300 c 1
 557 360 l 1
 618 365 l 1
 633 190 l 1
EndSplineSet
EndChar

StartChar: uni2231.disp
Encoding: 79 -1 79
Width: 902
Flags: W
HStem: -811 96<229 359.22> 339 87<434.703 519 633 717.342> 1268 93<768.049 921.734>
VStem: 519 114<-538.355 339 423.59 1098.06>
LayerCount: 2
Back
Fore
SplineSet
1047 138 m 1
 751 112 l 1
 745 183 l 1
 916 197 l 1
 833 268 738 324 633 339 c 1
 633 -413 l 2
 633 -633 453 -811 234 -811 c 0
 232 -811 231 -811 229 -811 c 1
 216 -715 l 1
 298 -715 l 2
 438 -715 519 -567 519 -413 c 2
 519 339 l 1
 387 320 271 236 174 140 c 1
 114 200 l 1
 226 313 364 407 519 426 c 1
 519 969 l 2
 519 1174 666 1351 866 1361 c 0
 871 1361 876 1361 880 1361 c 0
 903 1361 925 1359 948 1354 c 1
 923 1260 l 1
 896 1265 869 1268 841 1268 c 0
 706 1268 633 1120 633 969 c 2
 633 426 l 1
 756 411 866 350 963 269 c 1
 950 427 l 1
 1021 433 l 1
 1047 138 l 1
EndSplineSet
EndChar

StartChar: uni2A11
Encoding: 80 10769 80
Width: 720
Flags: W
HStem: -328 82<172 262.015> 185 76<254.314 311> 196 170<557 618.618> 320 61<457.426 517> 798 80<447.94 548.284>
VStem: 311 98<-190.975 189.162 261 747.775> 557 61<195.311 256>
LayerCount: 2
Back
Fore
SplineSet
633 366 m 1xae
 618 190 l 1
 557 196 l 1xae
 562 256 l 1
 516 222 465 195 409 185 c 1
 409 -96 l 2
 409 -224 305 -328 177 -328 c 0
 175 -328 174 -328 172 -328 c 1
 161 -246 l 1
 210 -246 l 2
 277 -246 311 -171 311 -96 c 2
 311 185 l 1
 228 200 155 251 94 311 c 1
 146 364 l 1
 193 317 248 276 311 261 c 1
 311 651 l 2
 311 773 402 877 521 878 c 0
 537 878 554 876 569 872 c 1
 548 792 l 1
 532 796 516 798 499 798 c 0
 436 798 409 724 409 651 c 2
 409 261 l 1
 448 270 484 289 517 314 c 1
 453 320 l 1
 458 381 l 1xde
 633 366 l 1xae
EndSplineSet
EndChar

StartChar: uni2A11.disp
Encoding: 81 -1 81
Width: 902
Flags: W
HStem: -811 96<229 359.22> 130 87<434.703 519 633 717.342> 1268 93<768.049 921.734>
VStem: 519 114<-538.355 132.41 217 1098.06>
LayerCount: 2
Back
Fore
SplineSet
1047 418 m 1
 1021 123 l 1
 950 129 l 1
 963 287 l 1
 866 206 756 145 633 130 c 1
 633 -413 l 2
 633 -633 453 -811 234 -811 c 0
 232 -811 231 -811 229 -811 c 1
 216 -715 l 1
 298 -715 l 2
 438 -715 519 -567 519 -413 c 2
 519 130 l 1
 364 149 226 243 114 356 c 1
 174 416 l 1
 271 320 387 236 519 217 c 1
 519 969 l 2
 519 1174 666 1351 866 1361 c 0
 871 1361 876 1361 880 1361 c 0
 903 1361 925 1359 948 1354 c 1
 923 1260 l 1
 896 1265 869 1268 841 1268 c 0
 706 1268 633 1120 633 969 c 2
 633 217 l 1
 738 232 833 288 916 359 c 1
 745 373 l 1
 751 444 l 1
 1047 418 l 1
EndSplineSet
EndChar

StartChar: uni2A0D
Encoding: 82 10765 82
Width: 600
Flags: W
HStem: -328 82<112 202.015> 241 74<113 251 349 487> 798 80<387.94 488.284>
VStem: 251 98<-190.975 241 315 747.775>
LayerCount: 2
Back
Fore
SplineSet
113 241 m 1
 113 315 l 1
 251 315 l 1
 251 651 l 2
 251 773 342 877 461 878 c 0
 477 878 493 876 509 872 c 1
 488 792 l 1
 472 796 456 798 439 798 c 0
 376 798 349 724 349 651 c 2
 349 315 l 1
 487 315 l 1
 487 241 l 1
 349 241 l 1
 349 -96 l 2
 349 -224 245 -328 117 -328 c 0
 115 -328 114 -328 112 -328 c 1
 101 -246 l 1
 150 -246 l 2
 217 -246 251 -171 251 -96 c 2
 251 241 l 1
 113 241 l 1
EndSplineSet
EndChar

StartChar: uni2A0D.disp
Encoding: 83 -1 83
Width: 686
Flags: W
HStem: -811 96<121 251.22> 235 86<155 411 525 781> 1268 93<660.049 813.734>
VStem: 411 114<-538.355 235 321 1098.06>
LayerCount: 2
Back
Fore
SplineSet
155 235 m 1
 155 321 l 1
 411 321 l 1
 411 969 l 2
 411 1174 558 1351 758 1361 c 0
 763 1361 768 1361 772 1361 c 0
 795 1361 817 1359 840 1354 c 1
 815 1260 l 1
 788 1265 761 1268 733 1268 c 0
 598 1268 525 1120 525 969 c 2
 525 321 l 1
 781 321 l 1
 781 235 l 1
 525 235 l 1
 525 -413 l 2
 525 -633 345 -811 126 -811 c 0
 124 -811 123 -811 121 -811 c 1
 108 -715 l 1
 190 -715 l 2
 330 -715 411 -567 411 -413 c 2
 411 235 l 1
 155 235 l 1
EndSplineSet
EndChar

StartChar: uni2A0E
Encoding: 84 10766 84
Width: 600
Flags: W
HStem: -328 82<112 202.015> 144 74<113 251 349 487> 337 74<113 251 349 487> 798 80<387.94 488.284>
VStem: 251 98<-190.975 144 218 337 411 747.775>
LayerCount: 2
Back
Fore
SplineSet
113 337 m 1
 113 411 l 1
 251 411 l 1
 251 651 l 2
 251 773 342 877 461 878 c 0
 477 878 493 876 509 872 c 1
 488 792 l 1
 472 796 456 798 439 798 c 0
 376 798 349 724 349 651 c 2
 349 411 l 1
 487 411 l 1
 487 337 l 1
 349 337 l 1
 349 218 l 1
 487 218 l 1
 487 144 l 1
 349 144 l 1
 349 -96 l 2
 349 -224 245 -328 117 -328 c 0
 115 -328 114 -328 112 -328 c 1
 101 -246 l 1
 150 -246 l 2
 217 -246 251 -171 251 -96 c 2
 251 144 l 1
 113 144 l 1
 113 218 l 1
 251 218 l 1
 251 337 l 1
 113 337 l 1
EndSplineSet
EndChar

StartChar: uni2A0E.disp
Encoding: 85 -1 85
Width: 686
Flags: W
HStem: -811 96<121 251.22> 139 86<155 411 525 781> 331 86<155 411 525 781> 1268 93<660.049 813.734>
VStem: 411 114<-538.355 139 225 331 417 1098.06>
LayerCount: 2
Back
Fore
SplineSet
155 331 m 1
 155 417 l 1
 411 417 l 1
 411 969 l 2
 411 1174 558 1351 758 1361 c 0
 763 1361 768 1361 772 1361 c 0
 795 1361 817 1359 840 1354 c 1
 815 1260 l 1
 788 1265 761 1268 733 1268 c 0
 598 1268 525 1120 525 969 c 2
 525 417 l 1
 781 417 l 1
 781 331 l 1
 525 331 l 1
 525 225 l 1
 781 225 l 1
 781 139 l 1
 525 139 l 1
 525 -413 l 2
 525 -633 345 -811 126 -811 c 0
 124 -811 123 -811 121 -811 c 1
 108 -715 l 1
 190 -715 l 2
 330 -715 411 -567 411 -413 c 2
 411 139 l 1
 155 139 l 1
 155 225 l 1
 411 225 l 1
 411 331 l 1
 155 331 l 1
EndSplineSet
EndChar

StartChar: uni2A0F
Encoding: 86 10767 86
Width: 476
Flags: W
HStem: -328 82<112 202.015> 798 80<387.94 488.284>
VStem: 251 98<-190.975 198 357 747.775>
LayerCount: 2
Back
Fore
SplineSet
119 106 m 1
 76 166 l 1
 251 289 l 1
 251 651 l 2
 251 773 342 877 461 878 c 0
 477 878 493 876 509 872 c 1
 488 792 l 1
 472 796 456 798 439 798 c 0
 376 798 349 724 349 651 c 2
 349 357 l 1
 481 450 l 1
 524 389 l 1
 349 267 l 1
 349 -96 l 2
 349 -224 245 -328 117 -328 c 0
 115 -328 114 -328 112 -328 c 1
 101 -246 l 1
 150 -246 l 2
 217 -246 251 -171 251 -96 c 2
 251 198 l 1
 119 106 l 1
EndSplineSet
EndChar

StartChar: uni2A0F.disp
Encoding: 87 -1 87
Width: 686
Flags: W
HStem: -811 96<121 251.22> 535 20G<759.413 801.803> 1268 93<660.049 813.734>
VStem: 411 114<-538.355 186 371 1098.06>
LayerCount: 2
Back
Fore
SplineSet
148 2 m 1
 99 72 l 1
 411 291 l 1
 411 969 l 2
 411 1174 558 1351 758 1361 c 0
 763 1361 768 1361 772 1361 c 0
 795 1361 817 1359 840 1354 c 1
 815 1260 l 1
 788 1265 761 1268 733 1268 c 0
 598 1268 525 1120 525 969 c 2
 525 371 l 1
 788 555 l 1
 837 484 l 1
 525 266 l 1
 525 -413 l 2
 525 -633 345 -811 126 -811 c 0
 124 -811 123 -811 121 -811 c 1
 108 -715 l 1
 190 -715 l 2
 330 -715 411 -567 411 -413 c 2
 411 186 l 1
 148 2 l 1
EndSplineSet
EndChar

StartChar: uni222E
Encoding: 88 8750 88
Width: 660
Flags: W
HStem: -328 82<142 232.015> 40 76<238.353 281 379 421.647> 434 76<238.353 281 379 421.647> 798 80<417.94 518.284>
VStem: 90 74<193.962 356.038> 281 98<-190.975 45.2289 116 434 504.771 747.775> 496 74<193.962 356.038>
CounterMasks: 1 0e
LayerCount: 2
Back
Fore
SplineSet
281 434 m 1
 217 414 164 350 164 275 c 0
 164 200 217 136 281 116 c 1
 281 434 l 1
379 116 m 1
 443 136 496 200 496 275 c 0
 496 350 443 414 379 434 c 1
 379 116 l 1
539 872 m 1
 518 792 l 1
 502 796 486 798 469 798 c 0
 406 798 379 724 379 651 c 2
 379 510 l 1
 425 501 467 478 500 445 c 0
 545 400 570 339 570 275 c 0
 570 211 545 150 500 105 c 0
 467 72 425 49 379 40 c 1
 379 -96 l 2
 379 -224 275 -328 147 -328 c 0
 145 -328 144 -328 142 -328 c 1
 131 -246 l 1
 180 -246 l 2
 247 -246 281 -171 281 -96 c 2
 281 40 l 1
 235 49 193 72 160 105 c 0
 115 150 90 211 90 275 c 0
 90 339 115 400 160 445 c 0
 193 478 235 501 281 510 c 1
 281 651 l 2
 281 773 372 877 491 878 c 0
 507 878 523 876 539 872 c 1
EndSplineSet
EndChar

StartChar: uni222E.disp
Encoding: 89 -1 89
Width: 794
Flags: W
HStem: -811 96<175 305.22> -153 87<391.819 465 579 652.181> 616 87<391.819 465 579 652.181> 1268 93<714.049 867.734>
VStem: 90 86<154.265 395.735> 465 114<-538.355 -149.407 -66 616 699.407 1098.06> 868 86<154.265 395.735>
CounterMasks: 1 0e
LayerCount: 2
Back
Fore
SplineSet
465 -66 m 1
 465 616 l 1
 394 604 328 571 277 520 c 0
 212 455 176 367 176 275 c 0
 176 183 212 95 277 30 c 0
 328 -21 394 -54 465 -66 c 1
868 275 m 0
 868 367 832 455 767 520 c 0
 716 571 650 604 579 616 c 1
 579 -66 l 1
 650 -54 716 -21 767 30 c 0
 832 95 868 183 868 275 c 0
894 1354 m 1
 869 1260 l 1
 842 1265 815 1268 787 1268 c 0
 652 1268 579 1120 579 969 c 2
 579 703 l 1
 673 690 760 647 827 580 c 0
 908 499 954 390 954 275 c 0
 954 160 908 51 827 -30 c 0
 760 -97 673 -140 579 -153 c 1
 579 -413 l 2
 579 -633 399 -811 180 -811 c 0
 178 -811 177 -811 175 -811 c 1
 162 -715 l 1
 244 -715 l 2
 384 -715 465 -567 465 -413 c 2
 465 -153 l 1
 371 -140 284 -97 217 -30 c 0
 136 51 90 160 90 275 c 0
 90 390 136 499 217 580 c 0
 284 647 371 690 465 703 c 1
 465 969 l 2
 465 1174 612 1351 812 1361 c 0
 817 1361 822 1361 826 1361 c 0
 849 1361 871 1359 894 1354 c 1
EndSplineSet
EndChar

StartChar: uni222F
Encoding: 90 8751 90
Width: 960
Flags: W
HStem: -328 82<142 232.015 442 532.015> 35 74<379 581> 441 74<379 581> 798 80<417.94 518.284 717.94 818.284>
VStem: 90 74<202.117 347.883> 281 98<-190.975 39 134 416 511 747.775> 581 98<-190.975 39 134 416 511 747.775> 796 74<202.117 347.883>
LayerCount: 2
Back
Fore
SplineSet
281 134 m 1
 281 416 l 1
 268 411 255 406 243 400 c 0
 196 375 164 328 164 275 c 0
 164 222 196 175 243 150 c 0
 255 144 268 139 281 134 c 1
581 113 m 1
 581 437 l 1
 548 440 514 441 480 441 c 0
 446 441 412 440 379 437 c 1
 379 113 l 1
 412 110 446 109 480 109 c 0
 514 109 548 110 581 113 c 1
796 275 m 0
 796 328 764 375 717 400 c 0
 705 406 692 411 679 416 c 1
 679 134 l 1
 692 139 705 144 717 150 c 0
 764 175 796 222 796 275 c 0
839 872 m 1
 818 792 l 1
 802 796 786 798 769 798 c 0
 706 798 679 724 679 651 c 2
 679 495 l 1
 712 486 743 473 773 455 c 0
 835 417 870 348 870 275 c 0
 870 202 835 133 773 95 c 0
 743 77 712 64 679 55 c 1
 679 -96 l 2
 679 -224 575 -328 447 -328 c 0
 445 -328 444 -328 442 -328 c 1
 431 -246 l 1
 480 -246 l 2
 547 -246 581 -171 581 -96 c 2
 581 39 l 1
 548 36 514 35 480 35 c 0
 446 35 412 36 379 39 c 1
 379 -96 l 2
 379 -224 275 -328 147 -328 c 0
 145 -328 144 -328 142 -328 c 1
 131 -246 l 1
 180 -246 l 2
 247 -246 281 -171 281 -96 c 2
 281 55 l 1
 248 64 217 77 188 95 c 0
 126 133 90 202 90 275 c 0
 90 348 126 417 188 455 c 0
 217 473 248 486 281 495 c 1
 281 651 l 2
 281 773 372 877 491 878 c 0
 507 878 523 876 539 872 c 1
 518 792 l 1
 502 796 486 798 469 798 c 0
 406 798 379 724 379 651 c 2
 379 511 l 1
 412 514 446 515 480 515 c 0
 514 515 548 514 581 511 c 1
 581 651 l 2
 581 773 672 877 791 878 c 0
 807 878 824 876 839 872 c 1
EndSplineSet
EndChar

StartChar: uni222F.disp
Encoding: 91 -1 91
Width: 1334
Flags: W
HStem: -811 96<175 305.22 715 845.22> -157 86<582.283 1001.72> 621 86<582.283 1001.72> 1260 94<827.077 870.862 1367.08 1410.86> 1268 93<714.049 867.734 1254.05 1407.73>
VStem: 90 86<167.758 382.242> 465 114<-538.355 -147 -39 589 697 1098.06> 1005 114<-538.355 -147 -39 589 697 1098.06> 1408 86<167.758 382.242>
LayerCount: 2
Back
Fore
SplineSet
465 -39 m 1xe780
 465 589 l 1
 418 576 373 559 330 535 c 0
 236 482 176 383 176 275 c 0
 176 167 236 68 330 15 c 0
 373 -9 418 -26 465 -39 c 1xe780
1005 -61 m 1
 1005 611 l 1
 935 620 863 621 792 621 c 0
 721 621 649 620 579 611 c 1
 579 -61 l 1
 649 -70 721 -71 792 -71 c 0
 863 -71 935 -70 1005 -61 c 1
1408 275 m 0
 1408 383 1348 482 1254 535 c 0
 1211 559 1166 576 1119 589 c 1
 1119 -39 l 1
 1166 -26 1211 -9 1254 15 c 0
 1348 68 1408 167 1408 275 c 0
1434 1354 m 1xf780
 1409 1260 l 1xf780
 1382 1265 1355 1268 1327 1268 c 0
 1192 1268 1119 1120 1119 969 c 2
 1119 678 l 1
 1189 662 1257 637 1319 599 c 0
 1430 530 1494 406 1494 275 c 0
 1494 144 1430 20 1319 -49 c 0
 1257 -87 1189 -112 1119 -128 c 1
 1119 -413 l 2
 1119 -633 939 -811 720 -811 c 0
 718 -811 717 -811 715 -811 c 1
 702 -715 l 1
 784 -715 l 2
 924 -715 1005 -567 1005 -413 c 2
 1005 -147 l 1
 935 -155 863 -157 792 -157 c 0
 721 -157 649 -155 579 -147 c 1
 579 -413 l 2
 579 -633 399 -811 180 -811 c 0
 178 -811 177 -811 175 -811 c 1
 162 -715 l 1
 244 -715 l 2
 384 -715 465 -567 465 -413 c 2
 465 -128 l 1
 395 -112 328 -87 266 -49 c 0
 154 20 90 144 90 275 c 0
 90 406 154 530 266 599 c 0
 328 637 395 662 465 678 c 1
 465 969 l 2
 465 1174 612 1351 812 1361 c 0
 817 1361 822 1361 826 1361 c 0xef80
 849 1361 871 1359 894 1354 c 1
 869 1260 l 1xf780
 842 1265 815 1268 787 1268 c 0
 652 1268 579 1120 579 969 c 2
 579 697 l 1
 649 705 721 707 792 707 c 0
 863 707 935 705 1005 697 c 1
 1005 969 l 2
 1005 1174 1152 1351 1352 1361 c 0
 1357 1361 1362 1361 1366 1361 c 0xef80
 1389 1361 1411 1359 1434 1354 c 1xf780
EndSplineSet
EndChar

StartChar: uni2230
Encoding: 92 8752 92
Width: 1260
Flags: W
HStem: -328 82<142 232.015 442 532.015 742 832.015> 50 75<379 577.813 682.187 881> 425 75<379 577.813 682.187 881> 798 80<417.94 518.284 717.94 818.284 1017.94 1118.28>
VStem: 90 74<213.985 336.015> 281 98<-190.975 50 150 400 500 747.775> 581 98<-190.975 35 109 441 515 747.775> 881 98<-190.975 50 150 400 500 747.775> 1096 74<213.853 336.147>
LayerCount: 2
Back
Fore
SplineSet
281 150 m 1
 281 400 l 1
 220 378 164 337 164 275 c 0
 164 213 220 172 281 150 c 1
379 125 m 1
 445 113 513 110 581 109 c 1
 581 441 l 1
 513 440 445 437 379 425 c 1
 379 125 l 1
679 109 m 1
 747 110 815 113 881 125 c 1
 881 425 l 1
 815 437 747 440 679 441 c 1
 679 109 l 1
979 150 m 1
 1040 171 1096 213 1096 275 c 0
 1096 337 1040 379 979 400 c 1
 979 150 l 1
1139 872 m 1
 1118 792 l 1
 1102 796 1086 798 1069 798 c 0
 1006 798 979 724 979 651 c 2
 979 476 l 1
 998 470 1017 463 1035 455 c 0
 1110 422 1170 356 1170 275 c 0
 1170 194 1110 128 1035 95 c 0
 1017 87 998 80 979 74 c 1
 979 -96 l 2
 979 -224 875 -328 747 -328 c 0
 745 -328 744 -328 742 -328 c 1
 731 -246 l 1
 780 -246 l 2
 847 -246 881 -171 881 -96 c 2
 881 50 l 1
 815 39 747 36 679 35 c 1
 679 -96 l 2
 679 -224 575 -328 447 -328 c 0
 445 -328 444 -328 442 -328 c 1
 431 -246 l 1
 480 -246 l 2
 547 -246 581 -171 581 -96 c 2
 581 35 l 1
 513 36 445 39 379 50 c 1
 379 -96 l 2
 379 -224 275 -328 147 -328 c 0
 145 -328 144 -328 142 -328 c 1
 131 -246 l 1
 180 -246 l 2
 247 -246 281 -171 281 -96 c 2
 281 74 l 1
 262 80 243 87 225 95 c 0
 150 128 90 194 90 275 c 0
 90 356 150 422 225 455 c 0
 243 463 262 470 281 476 c 1
 281 651 l 2
 281 773 372 877 491 878 c 0
 507 878 523 876 539 872 c 1
 518 792 l 1
 502 796 486 798 469 798 c 0
 406 798 379 724 379 651 c 2
 379 500 l 1
 445 511 513 514 581 515 c 1
 581 651 l 2
 581 773 672 877 791 878 c 0
 807 878 824 876 839 872 c 1
 818 792 l 1
 802 796 786 798 769 798 c 0
 706 798 679 724 679 651 c 2
 679 515 l 1
 747 514 815 511 881 500 c 1
 881 651 l 2
 881 773 972 877 1091 878 c 0
 1107 878 1124 876 1139 872 c 1
EndSplineSet
EndChar

StartChar: uni2230.disp
Encoding: 93 -1 93
Width: 1874
Flags: W
HStem: -811 96<175 305.22 715 845.22 1255 1385.22> -124 87<579 723.872 1400.13 1545> 587 87<579 723.872 1400.13 1545> 1260 94<827.077 870.862 1367.08 1410.86 1907.08 1950.86> 1268 93<714.049 867.734 1254.05 1407.73 1794.05 1947.73>
VStem: 90 86<183.761 366.239> 465 114<-538.355 -124 -9 559 674 1098.06> 1005 114<-538.355 -157 -71 621 707 1098.06> 1545 114<-538.355 -124 -9 559 674 1098.06> 1948 86<183.761 366.239>
LayerCount: 2
Back
Fore
SplineSet
465 -9 m 1xe7c0
 465 559 l 1
 442 552 419 544 397 535 c 0
 279 489 176 398 176 275 c 0
 176 152 279 61 397 15 c 0
 419 6 442 -2 465 -9 c 1xe7c0
579 -37 m 1
 718 -65 862 -70 1005 -71 c 1
 1005 621 l 1
 862 620 718 615 579 587 c 1
 579 -37 l 1
1119 -71 m 1
 1262 -70 1406 -65 1545 -37 c 1
 1545 587 l 1
 1406 615 1262 620 1119 621 c 1
 1119 -71 l 1
1948 275 m 0
 1948 398 1845 489 1727 535 c 0
 1705 544 1682 552 1659 559 c 1
 1659 -9 l 1
 1682 -2 1705 6 1727 15 c 0
 1845 61 1948 152 1948 275 c 0
1974 1354 m 1xf7c0
 1949 1260 l 1xf7c0
 1922 1265 1895 1268 1867 1268 c 0
 1732 1268 1659 1120 1659 969 c 2
 1659 647 l 1
 1704 634 1748 618 1791 599 c 0
 1927 539 2034 421 2034 275 c 0
 2034 129 1927 11 1791 -49 c 0
 1748 -68 1704 -84 1659 -97 c 1
 1659 -413 l 2
 1659 -633 1479 -811 1260 -811 c 0
 1258 -811 1257 -811 1255 -811 c 1
 1242 -715 l 1
 1324 -715 l 2
 1464 -715 1545 -567 1545 -413 c 2
 1545 -124 l 1
 1406 -150 1262 -156 1119 -157 c 1
 1119 -413 l 2
 1119 -633 939 -811 720 -811 c 0
 718 -811 717 -811 715 -811 c 1
 702 -715 l 1
 784 -715 l 2
 924 -715 1005 -567 1005 -413 c 2
 1005 -157 l 1
 862 -156 718 -150 579 -124 c 1
 579 -413 l 2
 579 -633 399 -811 180 -811 c 0
 178 -811 177 -811 175 -811 c 1
 162 -715 l 1
 244 -715 l 2
 384 -715 465 -567 465 -413 c 2
 465 -97 l 1
 420 -84 376 -68 333 -49 c 0
 198 11 90 129 90 275 c 0
 90 421 198 539 333 599 c 0
 376 618 420 634 465 647 c 1
 465 969 l 2
 465 1174 612 1351 812 1361 c 0
 817 1361 822 1361 826 1361 c 0xefc0
 849 1361 871 1359 894 1354 c 1
 869 1260 l 1xf7c0
 842 1265 815 1268 787 1268 c 0
 652 1268 579 1120 579 969 c 2
 579 674 l 1
 718 700 862 706 1005 707 c 1
 1005 969 l 2
 1005 1174 1152 1351 1352 1361 c 0
 1357 1361 1362 1361 1366 1361 c 0xefc0
 1389 1361 1411 1359 1434 1354 c 1
 1409 1260 l 1xf7c0
 1382 1265 1355 1268 1327 1268 c 0
 1192 1268 1119 1120 1119 969 c 2
 1119 707 l 1
 1262 706 1406 700 1545 674 c 1
 1545 969 l 2
 1545 1174 1692 1351 1892 1361 c 0
 1897 1361 1902 1361 1906 1361 c 0xefc0
 1929 1361 1951 1359 1974 1354 c 1xf7c0
EndSplineSet
EndChar

StartChar: uni2233
Encoding: 94 8755 94
Width: 720
Flags: W
HStem: -328 82<142 232.015> 43 76<235.789 281 379 422.752> 436 77<238.682 281 379 423.952> 798 80<417.94 518.284>
VStem: 90 74<194.259 359.929> 281 98<-190.975 46.6861 119 436 508.025 747.775>
LayerCount: 2
Back
Fore
SplineSet
281 436 m 1
 230 420 191 382 174 334 c 0
 167 316 164 297 164 278 c 0
 164 197 217 138 281 119 c 1
 281 436 l 1
551 184 m 1
 521 115 461 59 379 42 c 1
 379 -96 l 2
 379 -224 275 -328 147 -328 c 0
 145 -328 144 -328 142 -328 c 1
 131 -246 l 1
 180 -246 l 2
 247 -246 281 -171 281 -96 c 2
 281 43 l 1
 203 60 143 109 112 176 c 0
 97 208 90 243 90 278 c 0
 90 306 95 334 104 360 c 0
 131 435 195 495 281 513 c 1
 281 651 l 2
 281 773 372 877 491 878 c 0
 507 878 523 876 539 872 c 1
 518 792 l 1
 502 796 486 798 469 798 c 0
 406 798 379 724 379 651 c 2
 379 512 l 1
 457 495 517 446 548 379 c 1
 480 348 l 1
 461 390 424 423 379 437 c 1
 379 119 l 1
 428 134 464 169 483 212 c 1
 423 178 l 1
 392 232 l 1
 544 320 l 1
 568 278 l 1
 570 278 l 1
 570 277 570 276 570 275 c 2
 632 167 l 1
 579 136 l 1
 551 184 l 1
EndSplineSet
EndChar

StartChar: uni2233.disp
Encoding: 95 -1 95
Width: 902
Flags: W
HStem: -811 96<175 305.22> -150 87<390.292 465 579 657.412> 620 86<389.186 465 579 653.118> 1268 93<714.049 867.734>
VStem: 90 86<156.021 397.349> 465 114<-538.355 -146.81 -63 619 702.81 1098.06>
LayerCount: 2
Back
Fore
SplineSet
465 620 m 1
 333 598 237 508 197 396 c 0
 183 358 176 317 176 277 c 0
 176 227 186 178 208 132 c 0
 255 31 344 -42 465 -63 c 1
 465 620 l 1
914 461 m 1
 836 424 l 1
 789 525 700 598 579 619 c 1
 579 -64 l 1
 727 -39 831 67 861 207 c 1
 703 116 l 1
 667 178 l 1
 924 327 l 1
 952 278 l 1
 954 278 l 2
 954 277 954 276 954 275 c 2
 1073 70 l 1
 1011 34 l 1
 938 161 l 1
 903 37 817 -61 705 -114 c 0
 665 -133 622 -144 579 -150 c 1
 579 -413 l 2
 579 -633 399 -811 180 -811 c 0
 178 -811 177 -811 175 -811 c 1
 162 -715 l 1
 244 -715 l 2
 384 -715 465 -567 465 -413 c 2
 465 -150 l 1
 434 -146 404 -139 374 -128 c 0
 267 -89 179 -8 130 95 c 0
 103 153 90 215 90 277 c 0
 90 327 99 378 116 426 c 0
 155 533 236 621 339 670 c 0
 379 689 422 700 465 706 c 1
 465 969 l 2
 465 1174 612 1351 812 1361 c 0
 817 1361 822 1361 826 1361 c 0
 849 1361 871 1359 894 1354 c 1
 869 1260 l 1
 842 1265 815 1268 787 1268 c 0
 652 1268 579 1120 579 969 c 2
 579 706 l 1
 610 702 640 695 670 684 c 0
 777 645 865 564 914 461 c 1
EndSplineSet
EndChar

StartChar: uni2232.alt
Encoding: 96 -1 96
Width: 720
Flags: W
HStem: -328 82<142 232.015> 43 76<235.789 281 379 424.87> 436 77<238.682 281 379 422.095> 798 80<417.94 518.284>
VStem: 90 74<194.259 359.929> 281 98<-190.975 46.9923 119 436 508.025 747.775>
LayerCount: 2
Back
Fore
SplineSet
281 436 m 1
 230 420 191 382 174 334 c 0
 167 316 164 297 164 278 c 0
 164 197 217 138 281 119 c 1
 281 436 l 1
379 512 m 1
 459 495 522 443 551 371 c 1
 579 419 l 1
 632 388 l 1
 570 280 l 2
 570 279 570 279 570 278 c 2
 569 278 l 1
 544 235 l 1
 392 324 l 1
 423 377 l 1
 482 343 l 1
 462 388 427 422 379 437 c 1
 379 119 l 1
 430 134 469 173 486 221 c 1
 556 196 l 1
 528 121 465 60 379 42 c 1
 379 -96 l 2
 379 -224 275 -328 147 -328 c 0
 145 -328 144 -328 142 -328 c 1
 131 -246 l 1
 180 -246 l 2
 247 -246 281 -171 281 -96 c 2
 281 43 l 1
 203 60 143 109 112 176 c 0
 97 208 90 243 90 278 c 0
 90 306 95 334 104 360 c 0
 131 435 195 495 281 513 c 1
 281 651 l 2
 281 773 372 877 491 878 c 0
 507 878 523 876 539 872 c 1
 518 792 l 1
 502 796 486 798 469 798 c 0
 406 798 379 724 379 651 c 2
 379 512 l 1
EndSplineSet
EndChar

StartChar: uni2232.alt.disp
Encoding: 97 -1 97
Width: 902
Flags: W
HStem: -811 96<175 305.22> -150 87<390.292 465 579 654.814> 620 86<389.186 465 579 650.15> 1268 93<714.049 867.734>
VStem: 90 86<156.021 397.349> 465 114<-538.355 -146.81 -63 619 702.81 1098.06>
LayerCount: 2
Back
Fore
SplineSet
465 620 m 1
 333 598 237 508 197 396 c 0
 183 358 176 317 176 277 c 0
 176 227 186 178 208 132 c 0
 255 31 344 -42 465 -63 c 1
 465 620 l 1
579 -64 m 1
 711 -42 807 48 847 160 c 1
 928 130 l 1
 889 23 808 -65 705 -114 c 0
 665 -133 622 -144 579 -150 c 1
 579 -413 l 2
 579 -633 399 -811 180 -811 c 0
 178 -811 177 -811 175 -811 c 1
 162 -715 l 1
 244 -715 l 2
 384 -715 465 -567 465 -413 c 2
 465 -150 l 1
 434 -146 404 -139 374 -128 c 0
 267 -89 179 -8 130 95 c 0
 103 153 90 215 90 277 c 0
 90 327 99 378 116 426 c 0
 155 533 236 621 339 670 c 0
 379 689 422 700 465 706 c 1
 465 969 l 2
 465 1174 612 1351 812 1361 c 0
 817 1361 822 1361 826 1361 c 0
 849 1361 871 1359 894 1354 c 1
 869 1260 l 1
 842 1265 815 1268 787 1268 c 0
 652 1268 579 1120 579 969 c 2
 579 706 l 1
 610 702 640 695 670 684 c 0
 797 638 899 535 938 396 c 1
 1011 522 l 1
 1073 487 l 1
 954 281 l 2
 954 280 954 279 954 278 c 2
 952 278 l 1
 924 229 l 1
 667 378 l 1
 703 440 l 1
 861 349 l 1
 835 474 749 564 640 603 c 0
 620 610 600 615 579 619 c 1
 579 -64 l 1
EndSplineSet
EndChar

StartChar: uni2233.alt
Encoding: 98 -1 98
Width: 720
Flags: W
HStem: -328 82<202 292.015> 43 76<299.096 341 439 484.87> 436 77<297.248 341 439 483.859> 798 80<477.94 578.284>
VStem: 341 98<-190.975 46.9923 119 436 508.314 747.775> 556 74<195.528 359.677>
LayerCount: 2
Back
Fore
SplineSet
439 119 m 1
 490 134 529 173 546 221 c 0
 553 239 556 258 556 277 c 0
 556 359 502 418 439 437 c 1
 439 119 l 1
169 371 m 1
 199 440 259 496 341 513 c 1
 341 651 l 2
 341 773 432 877 551 878 c 0
 567 878 584 876 599 872 c 1
 578 792 l 1
 562 796 546 798 529 798 c 0
 466 798 439 724 439 651 c 2
 439 512 l 1
 517 495 577 446 608 379 c 0
 623 347 630 312 630 277 c 0
 630 250 625 222 616 196 c 0
 588 121 525 60 439 42 c 1
 439 -96 l 2
 439 -224 335 -328 207 -328 c 0
 205 -328 204 -328 202 -328 c 1
 191 -246 l 1
 240 -246 l 2
 307 -246 341 -171 341 -96 c 2
 341 43 l 1
 263 60 203 109 172 176 c 1
 240 207 l 1
 259 166 296 133 341 119 c 1
 341 436 l 1
 293 421 256 387 237 343 c 1
 297 377 l 1
 328 324 l 1
 176 235 l 1
 151 278 l 1
 150 278 l 2
 150 279 150 279 150 280 c 2
 88 388 l 1
 141 419 l 1
 169 371 l 1
EndSplineSet
EndChar

StartChar: uni2233.alt.disp
Encoding: 99 -1 99
Width: 902
Flags: W
HStem: -811 96<283 413.22> -150 87<498.292 573 687 762.814> 620 86<497.186 573 687 761.118> 1268 93<822.049 975.734>
VStem: 573 114<-538.355 -146.81 -63 619 702.81 1098.06> 976 86<158.651 399.979>
LayerCount: 2
Back
Fore
SplineSet
687 -64 m 1
 819 -42 915 48 955 160 c 0
 969 198 976 239 976 279 c 0
 976 329 966 378 944 424 c 0
 897 525 808 598 687 619 c 1
 687 -64 l 1
238 95 m 1
 316 132 l 1
 363 31 452 -42 573 -63 c 1
 573 620 l 1
 441 598 345 508 305 396 c 0
 299 381 294 365 291 349 c 1
 449 440 l 1
 485 378 l 1
 228 229 l 1
 200 278 l 1
 198 278 l 2
 198 279 198 280 198 281 c 2
 79 487 l 1
 141 522 l 1
 214 395 l 1
 249 519 335 617 447 670 c 0
 487 689 530 700 573 706 c 1
 573 969 l 2
 573 1174 720 1351 920 1361 c 0
 925 1361 930 1361 934 1361 c 0
 957 1361 979 1359 1002 1354 c 1
 977 1260 l 1
 950 1265 923 1268 895 1268 c 0
 760 1268 687 1120 687 969 c 2
 687 706 l 1
 718 702 748 695 778 684 c 0
 885 645 973 564 1022 461 c 0
 1049 403 1062 341 1062 279 c 0
 1062 229 1053 178 1036 130 c 0
 997 23 916 -65 813 -114 c 0
 773 -133 730 -144 687 -150 c 1
 687 -413 l 2
 687 -633 507 -811 288 -811 c 0
 286 -811 285 -811 283 -811 c 1
 270 -715 l 1
 352 -715 l 2
 492 -715 573 -567 573 -413 c 2
 573 -150 l 1
 542 -146 512 -139 482 -128 c 0
 375 -89 287 -8 238 95 c 1
EndSplineSet
EndChar

StartChar: uni2232
Encoding: 100 8754 100
Width: 720
Flags: W
HStem: -328 82<202 292.015> 43 76<297.819 341 439 484.87> 436 77<298.682 341 439 483.859> 798 80<477.94 578.284>
VStem: 341 98<-190.975 46.9923 119 436 508.025 747.775> 556 74<195.528 359.677>
LayerCount: 2
Back
Fore
SplineSet
439 119 m 1
 490 134 529 173 546 221 c 0
 553 239 556 258 556 277 c 0
 556 359 502 418 439 437 c 1
 439 119 l 1
164 360 m 1
 191 435 255 495 341 513 c 1
 341 651 l 2
 341 773 432 877 551 878 c 0
 567 878 584 876 599 872 c 1
 578 792 l 1
 562 796 546 798 529 798 c 0
 466 798 439 724 439 651 c 2
 439 512 l 1
 517 495 577 446 608 379 c 0
 623 347 630 312 630 277 c 0
 630 250 625 222 616 196 c 0
 588 121 525 60 439 42 c 1
 439 -96 l 2
 439 -224 335 -328 207 -328 c 0
 205 -328 204 -328 202 -328 c 1
 191 -246 l 1
 240 -246 l 2
 307 -246 341 -171 341 -96 c 2
 341 43 l 1
 261 60 197 113 169 184 c 1
 141 136 l 1
 88 167 l 1
 150 275 l 2
 150 276 150 277 150 278 c 1
 152 278 l 1
 176 320 l 1
 328 232 l 1
 297 178 l 1
 238 212 l 1
 258 168 293 134 341 119 c 1
 341 436 l 1
 290 420 251 382 234 334 c 1
 164 360 l 1
EndSplineSet
EndChar

StartChar: uni2232.disp
Encoding: 101 -1 101
Width: 902
Flags: W
HStem: -811 96<283 413.22> -150 87<498.292 573 687 762.814> 620 86<497.186 573 687 761.118> 1268 93<822.049 975.734>
VStem: 573 114<-538.355 -146.81 -63 619 702.81 1098.06> 976 86<158.651 399.979>
LayerCount: 2
Back
Fore
SplineSet
687 -64 m 1
 819 -42 915 48 955 160 c 0
 969 198 976 239 976 279 c 0
 976 329 966 378 944 424 c 0
 897 525 808 598 687 619 c 1
 687 -64 l 1
573 620 m 1
 441 598 345 508 305 396 c 1
 224 426 l 1
 263 533 344 621 447 670 c 0
 487 689 530 700 573 706 c 1
 573 969 l 2
 573 1174 720 1351 920 1361 c 0
 925 1361 930 1361 934 1361 c 0
 957 1361 979 1359 1002 1354 c 1
 977 1260 l 1
 950 1265 923 1268 895 1268 c 0
 760 1268 687 1120 687 969 c 2
 687 706 l 1
 718 702 748 695 778 684 c 0
 885 645 973 564 1022 461 c 0
 1049 403 1062 341 1062 279 c 0
 1062 229 1053 178 1036 130 c 0
 997 23 916 -65 813 -114 c 0
 773 -133 730 -144 687 -150 c 1
 687 -413 l 2
 687 -633 507 -811 288 -811 c 0
 286 -811 285 -811 283 -811 c 1
 270 -715 l 1
 352 -715 l 2
 492 -715 573 -567 573 -413 c 2
 573 -150 l 1
 542 -146 512 -139 482 -128 c 0
 355 -82 253 21 214 160 c 1
 141 34 l 1
 79 70 l 1
 198 275 l 2
 198 276 198 277 198 278 c 2
 200 278 l 1
 228 327 l 1
 485 178 l 1
 449 116 l 1
 291 207 l 1
 296 181 305 156 316 132 c 0
 363 32 452 -42 573 -63 c 1
 573 620 l 1
EndSplineSet
EndChar

StartChar: uni2A0B
Encoding: 102 10763 102
Width: 630
Flags: W
HStem: -328 82<142 232.015> -5 69<192 281> 504 56<211 281 379 451.825> 798 80<417.94 518.284>
VStem: 281 98<-190.975 -5 73 178 403 501 560 747.775> 485 30<433 460.761>
LayerCount: 2
Back
Fore
SplineSet
281 178 m 1
 192 57 l 1
 281 64 l 1
 281 178 l 1
281 503 m 1
 211 504 l 1
 281 403 l 1
 281 503 l 1
110 -5 m 1
 95 57 l 1
 250 268 l 1
 95 492 l 1
 111 560 l 1
 281 560 l 1
 281 651 l 2
 281 773 372 877 491 878 c 0
 507 878 523 876 539 872 c 1
 518 792 l 1
 502 796 486 798 469 798 c 0
 406 798 379 724 379 651 c 2
 379 560 l 1
 515 560 l 1
 515 433 l 1
 485 433 l 1
 470 467 446 500 410 501 c 2
 379 501 l 1
 379 73 l 1
 396 74 l 2
 440 78 491 84 500 126 c 1
 530 119 l 1
 496 -5 l 1
 379 -5 l 1
 379 -96 l 2
 379 -224 275 -328 147 -328 c 0
 145 -328 144 -328 142 -328 c 1
 131 -246 l 1
 180 -246 l 2
 247 -246 281 -171 281 -96 c 2
 281 -5 l 1
 110 -5 l 1
EndSplineSet
EndChar

StartChar: uni2A0B.disp
Encoding: 103 -1 103
Width: 882
Flags: W
HStem: -811 96<175 305.22> -231 83<421.182 465 579 645.889> -231 72<224 377.364> 720 67<246 465 579 776.563> 1268 93<714.049 867.734>
VStem: 465 114<-538.355 -231 -143 166 416 719 787 1098.06> 836 35<640 666.203> 854 35<-105.753 -86.4>
LayerCount: 2
Back
Fore
SplineSet
465 166 m 1xdc
 224 -159 l 1xbc
 465 -148 l 1
 465 166 l 1xdc
465 720 m 1
 246 722 l 1
 465 416 l 1
 465 720 l 1
132 -231 m 1
 115 -159 l 1
 431 267 l 1
 115 707 l 1
 134 787 l 1
 465 787 l 1
 465 969 l 2
 465 1174 612 1351 812 1361 c 0
 817 1361 822 1361 826 1361 c 0
 849 1361 871 1359 894 1354 c 1
 869 1260 l 1
 842 1265 815 1268 787 1268 c 0
 652 1268 579 1120 579 969 c 2
 579 787 l 1
 871 787 l 1
 871 640 l 1
 836 640 l 1xbe
 812 697 746 717 682 718 c 2
 579 719 l 1
 579 -143 l 1
 665 -139 l 2
 743 -136 842 -131 854 -80 c 1
 889 -88 l 1
 849 -231 l 1xbd
 579 -231 l 1
 579 -413 l 2
 579 -633 399 -811 180 -811 c 0
 178 -811 177 -811 175 -811 c 1
 162 -715 l 1
 244 -715 l 2
 384 -715 465 -567 465 -413 c 2
 465 -231 l 1xdd
 132 -231 l 1
EndSplineSet
EndChar

StartChar: uni2A0B.sf
Encoding: 104 -1 104
Width: 630
Flags: W
HStem: -328 82<142 232.015> -5 85<208 281 379 515> 476 84<208 281 379 515> 798 80<417.94 518.284>
VStem: 281 98<-190.975 -5 80 174 382 476 560 747.775>
LayerCount: 2
Back
Fore
SplineSet
281 174 m 1
 208 80 l 1
 281 80 l 1
 281 174 l 1
281 476 m 1
 208 476 l 1
 281 382 l 1
 281 476 l 1
95 -5 m 1
 95 80 l 1
 249 278 l 1
 95 476 l 1
 95 560 l 1
 281 560 l 1
 281 651 l 2
 281 773 372 877 491 878 c 0
 507 878 523 876 539 872 c 1
 518 792 l 1
 502 796 486 798 469 798 c 0
 406 798 379 724 379 651 c 2
 379 560 l 1
 515 560 l 1
 515 476 l 1
 379 476 l 1
 379 80 l 1
 515 80 l 1
 515 -5 l 1
 379 -5 l 1
 379 -96 l 2
 379 -224 275 -328 147 -328 c 0
 145 -328 144 -328 142 -328 c 1
 131 -246 l 1
 180 -246 l 2
 247 -246 281 -171 281 -96 c 2
 281 -5 l 1
 95 -5 l 1
EndSplineSet
EndChar

StartChar: uni2A0B.sf.disp
Encoding: 105 -1 105
Width: 882
Flags: W
HStem: -811 96<175 305.22> -231 98<243 465 579 871> 689 98<243 465 579 871> 1268 93<714.049 867.734>
VStem: 465 114<-538.355 -231 -133 158 398 689 787 1098.06>
LayerCount: 2
Back
Fore
SplineSet
465 158 m 1
 243 -133 l 1
 465 -133 l 1
 465 158 l 1
465 689 m 1
 243 689 l 1
 465 398 l 1
 465 689 l 1
115 -231 m 1
 115 -133 l 1
 430 278 l 1
 115 689 l 1
 115 787 l 1
 465 787 l 1
 465 969 l 2
 465 1174 612 1351 812 1361 c 0
 817 1361 822 1361 826 1361 c 0
 849 1361 871 1359 894 1354 c 1
 869 1260 l 1
 842 1265 815 1268 787 1268 c 0
 652 1268 579 1120 579 969 c 2
 579 787 l 1
 871 787 l 1
 871 689 l 1
 579 689 l 1
 579 -133 l 1
 871 -133 l 1
 871 -231 l 1
 579 -231 l 1
 579 -413 l 2
 579 -633 399 -811 180 -811 c 0
 178 -811 177 -811 175 -811 c 1
 162 -715 l 1
 244 -715 l 2
 384 -715 465 -567 465 -413 c 2
 465 -231 l 1
 115 -231 l 1
EndSplineSet
EndChar

StartChar: uni0302
Encoding: 114 770 106
Width: 420
Flags: W
HStem: 665 175
LayerCount: 2
Back
Fore
SplineSet
-15 733 m 1
 210 840 l 1
 435 733 l 1
 405 665 l 1
 210 751 l 1
 15 665 l 1
 -15 733 l 1
EndSplineSet
EndChar

StartChar: uni0302.big1
Encoding: 115 -1 107
Width: 756
Flags: W
HStem: 663 177
LayerCount: 2
Back
Fore
SplineSet
-9 735 m 1
 378 840 l 1
 765 735 l 1
 747 663 l 1
 378 751 l 1
 9 663 l 1
 -9 735 l 1
EndSplineSet
EndChar

StartChar: uni0302.big2
Encoding: 116 -1 108
Width: 1092
Flags: W
HStem: 663 72<4.83333 30.8 1061.2 1087.17>
LayerCount: 2
Back
Fore
SplineSet
-6 735 m 1
 546 840 l 1
 1098 735 l 1
 1086 663 l 1
 546 751 l 1
 6 663 l 1
 -6 735 l 1
EndSplineSet
EndChar

StartChar: uni0302.big3
Encoding: 117 -1 109
Width: 1428
Flags: W
HStem: 662 74<4.05405 43.3942>
LayerCount: 2
Back
Fore
SplineSet
-5 736 m 1
 714 840 l 1
 1433 736 l 1
 1423 662 l 1
 714 751 l 1
 5 662 l 1
 -5 736 l 1
EndSplineSet
EndChar

StartChar: uni0302.big4
Encoding: 118 -1 110
Width: 1764
Flags: W
HStem: 662 74<3.24324 55.6346>
LayerCount: 2
Back
Fore
SplineSet
-4 736 m 1
 882 840 l 1
 1768 736 l 1
 1760 662 l 1
 882 751 l 1
 4 662 l 1
 -4 736 l 1
EndSplineSet
EndChar

StartChar: uni0302.big5
Encoding: 119 -1 111
Width: 2100
Flags: W
HStem: 662 74<2.43243 67.875 2032.12 2097.57>
LayerCount: 2
Back
Fore
SplineSet
-3 736 m 1
 1050 840 l 1
 2103 736 l 1
 2097 662 l 1
 1050 751 l 1
 3 662 l 1
 -3 736 l 1
EndSplineSet
EndChar

StartChar: uni0303
Encoding: 120 771 112
Width: 420
Flags: W
HStem: 662 74<253.695 346.663> 707 21G<23 56.5> 758 74<73.3372 166.305>
LayerCount: 2
Back
Fore
SplineSet
46 707 m 1x60
 0 747 l 1
 34 786 66 832 117 832 c 0
 163 832 203 806 236 774 c 0
 255 755 276 736 303 736 c 0
 334 736 353 764 374 788 c 1
 420 747 l 1
 386 709 354 662 303 662 c 0xa0
 257 662 217 689 184 720 c 0
 165 739 144 758 117 758 c 0
 86 758 67 730 46 707 c 1x60
EndSplineSet
EndChar

StartChar: uni0303.big1
Encoding: 121 -1 113
Width: 756
Flags: W
HStem: 662 74<445.663 647.362> 758 74<108.638 310.337>
LayerCount: 2
Back
Fore
SplineSet
33 695 m 1
 0 747 l 1
 63 787 127 832 201 832 c 0
 269 832 335 811 395 780 c 0
 445 754 499 736 555 736 c 0
 616 736 671 766 723 799 c 1
 756 747 l 1
 693 707 629 662 555 662 c 0
 487 662 421 683 361 714 c 0
 311 740 257 758 201 758 c 0
 140 758 85 728 33 695 c 1
EndSplineSet
EndChar

StartChar: uni0303.big2
Encoding: 122 -1 114
Width: 1092
Flags: W
HStem: 662 74<642.413 935.144> 758 74<156.856 449.587>
LayerCount: 2
Back
Fore
SplineSet
25 691 m 1
 0 747 l 1
 92 788 185 832 285 832 c 0
 378 832 470 812 558 782 c 0
 638 755 722 736 807 736 c 0
 897 736 984 767 1067 804 c 1
 1092 747 l 1
 1000 707 907 662 807 662 c 0
 714 662 622 682 534 712 c 0
 454 739 370 758 285 758 c 0
 195 758 108 727 25 691 c 1
EndSplineSet
EndChar

StartChar: uni0303.big3
Encoding: 123 -1 115
Width: 1428
Flags: W
HStem: 662 74<842.111 1221.05> 758 74<204.218 585.889>
LayerCount: 2
Back
Fore
SplineSet
20 689 m 1
 0 747 l 1
 121 788 242 832 369 832 c 0
 489 832 607 811 723 783 c 0
 833 756 945 736 1059 736 c 0
 1178 736 1295 767 1408 806 c 1
 1428 747 l 1
 1307 707 1186 662 1059 662 c 0
 939 662 821 683 705 711 c 0
 595 738 483 758 369 758 c 0
 250 758 133 727 20 689 c 1
EndSplineSet
EndChar

StartChar: uni0303.big4
Encoding: 124 -1 116
Width: 1764
Flags: W
HStem: 662 74<1077.25 1510.97> 758 74<253.029 687.272>
LayerCount: 2
Back
Fore
SplineSet
1311 662 m 0
 1021 662 743 758 453 758 c 0
 305 758 159 727 16 688 c 1
 0 747 l 1
 149 788 299 832 453 832 c 0
 600 832 745 810 889 784 c 0
 1028 758 1169 736 1311 736 c 0
 1459 736 1605 768 1748 807 c 1
 1764 747 l 1
 1615 706 1465 662 1311 662 c 0
EndSplineSet
EndChar

StartChar: uni0303.big5
Encoding: 125 -1 117
Width: 2100
Flags: W
HStem: 662 74<1337.84 1800.64> 758 74<299.361 762.158>
LayerCount: 2
Back
Fore
SplineSet
1563 662 m 0
 1218 662 881 758 537 758 c 0
 361 758 186 726 14 687 c 1
 0 747 l 1
 177 788 355 832 537 832 c 0
 882 832 1219 736 1563 736 c 0
 1739 736 1914 768 2086 807 c 1
 2100 747 l 1
 1923 706 1745 662 1563 662 c 0
EndSplineSet
EndChar

StartChar: uni0311
Encoding: 126 785 118
Width: 420
Flags: W
HStem: 758 74<131.148 288.852>
LayerCount: 2
Back
Fore
SplineSet
56 675 m 1
 0 723 l 1
 54 786 128 832 210 832 c 0
 292 832 366 786 420 723 c 1
 364 675 l 1
 324 721 271 758 210 758 c 0
 149 758 96 721 56 675 c 1
EndSplineSet
EndChar

StartChar: uni0311.big1
Encoding: 127 -1 119
Width: 756
Flags: W
HStem: 758 74<200.516 555.484>
LayerCount: 2
Back
Fore
SplineSet
40 668 m 1
 0 730 l 1
 112 802 245 832 378 832 c 0
 511 832 644 802 756 730 c 1
 716 668 l 1
 616 732 497 758 378 758 c 0
 259 758 140 732 40 668 c 1
EndSplineSet
EndChar

StartChar: uni0311.big2
Encoding: 128 -1 120
Width: 1092
Flags: W
HStem: 758 74<308.466 783.534>
LayerCount: 2
Back
Fore
SplineSet
30 665 m 1
 0 733 l 1
 171 808 359 832 546 832 c 0
 733 832 921 808 1092 733 c 1
 1062 665 l 1
 900 736 723 758 546 758 c 0
 369 758 192 736 30 665 c 1
EndSplineSet
EndChar

StartChar: uni0311.big3
Encoding: 129 -1 121
Width: 1428
Flags: W
HStem: 758 74<479.926 948.074>
LayerCount: 2
Back
Fore
SplineSet
24 664 m 1
 0 734 l 1
 229 811 472 832 714 832 c 0
 956 832 1199 811 1428 734 c 1
 1404 664 l 1
 1183 739 948 758 714 758 c 0
 480 758 245 739 24 664 c 1
EndSplineSet
EndChar

StartChar: uni0311.big4
Encoding: 130 -1 122
Width: 1764
Flags: W
HStem: 663 72<17.1528 80.9989 1683 1746.85> 758 74<648.034 1115.97>
LayerCount: 2
Back
Fore
SplineSet
19 663 m 1
 0 735 l 1
 287 813 585 832 882 832 c 0
 1179 832 1477 813 1764 735 c 1
 1745 663 l 1
 1464 740 1172 758 882 758 c 0
 592 758 300 740 19 663 c 1
EndSplineSet
EndChar

StartChar: uni0311.big5
Encoding: 131 -1 123
Width: 2100
Flags: W
HStem: 663 72<15.3472 96.3966 2003.6 2084.65> 758 74<820.345 1279.65>
LayerCount: 2
Back
Fore
SplineSet
17 663 m 1
 0 735 l 1
 344 814 697 832 1050 832 c 0
 1403 832 1756 814 2100 735 c 1
 2083 663 l 1
 1745 740 1397 758 1050 758 c 0
 703 758 355 740 17 663 c 1
EndSplineSet
EndChar

StartChar: uni20D7
Encoding: 132 8407 124
Width: 450
Flags: W
HStem: 727 55<90 355>
LayerCount: 2
Back
Fore
SplineSet
461 755 m 1
 349 642 l 1
 310 682 l 1
 355 727 l 1
 90 727 l 1
 90 782 l 1
 356 782 l 1
 310 827 l 1
 349 867 l 1
 461 755 l 1
EndSplineSet
EndChar

StartChar: uni0335
Encoding: 133 821 125
Width: 300
Flags: W
HStem: 307 62<3 297>
VStem: -3 306
LayerCount: 2
Back
Fore
SplineSet
3 369 m 1
 303 369 l 1
 297 307 l 1
 -3 307 l 1
 3 369 l 1
EndSplineSet
EndChar

StartChar: uni0337
Encoding: 134 823 126
Width: 300
Flags: W
HStem: 227 222
VStem: -3 306
LayerCount: 2
Back
Fore
SplineSet
3 301 m 1
 303 449 l 1
 297 375 l 1
 -3 227 l 1
 3 301 l 1
EndSplineSet
EndChar

StartChar: uni0338
Encoding: 135 824 127
Width: 480
Flags: W
LayerCount: 2
Back
Fore
SplineSet
481 679 m 1
 69 -452 l 1
 -1 -427 l 1
 411 704 l 1
 481 679 l 1
EndSplineSet
EndChar
